<svg xmlns="http://www.w3.org/2000/svg" xmlns:xlink="http://www.w3.org/1999/xlink" width="200" height="200" zoomAndPan="magnify" viewBox="0 0 375 374.999991" preserveAspectRatio="xMidYMid meet" version="1.0"><defs><filter x="0%" y="0%" width="100%" height="100%" id="35066aec80"><feColorMatrix values="0 0 0 0 1 0 0 0 0 1 0 0 0 0 1 0 0 0 1 0" color-interpolation-filters="sRGB"/></filter><g/><clipPath id="dad148df75"><path d="M 61.582031 48.554688 L 313.582031 48.554688 L 313.582031 326 L 61.582031 326 Z M 61.582031 48.554688 " clip-rule="nonzero"/></clipPath><clipPath id="54e13508dd"><path d="M 57.066406 128.394531 L 252.90625 128.394531 L 252.90625 188 L 57.066406 188 Z M 57.066406 128.394531 " clip-rule="nonzero"/></clipPath><clipPath id="e6e74557d7"><path d="M 177.226562 128.625 C 215.175781 146.101562 222.601562 147.824219 229.800781 149.699219 C 236.324219 151.425781 245.398438 152.398438 248.625 154.050781 C 249.976562 154.726562 250.425781 155.25 251.023438 156.226562 C 251.699219 157.425781 252.148438 159.601562 252.074219 160.949219 C 252 162.074219 251.625 163.050781 250.949219 163.949219 C 250.125 165 249 166.050781 246.976562 166.574219 C 242.023438 167.851562 229.574219 166.050781 219.375 164.398438 C 206.324219 162.226562 186.375 156.375 175.351562 153.226562 C 168.675781 151.273438 164.550781 149.25 159.300781 148.125 C 154.351562 147.074219 148.949219 147.148438 144.75 146.398438 C 141.523438 145.800781 138.375 145.125 136.351562 144.300781 C 135.148438 143.851562 134.324219 143.550781 133.574219 142.726562 C 132.601562 141.75 131.699219 139.726562 131.476562 138.375 C 131.324219 137.25 131.476562 136.199219 132 135.148438 C 132.601562 133.949219 133.949219 132.375 135.300781 131.699219 C 136.648438 131.023438 138 130.949219 140.101562 131.324219 C 144.898438 132.148438 155.851562 137.851562 162.375 141 C 167.625 143.550781 170.25 145.726562 176.398438 148.5 C 187.050781 153.300781 215.851562 161.699219 221.398438 165.148438 C 222.824219 166.050781 223.273438 166.425781 223.800781 167.398438 C 224.476562 168.601562 225 170.550781 224.773438 172.050781 C 224.550781 173.550781 223.351562 175.351562 222.375 176.25 C 221.550781 177 220.5 177.375 219.523438 177.601562 C 218.476562 177.824219 217.726562 177.824219 216.300781 177.523438 C 213.148438 176.851562 206.773438 173.101562 201.75 171.449219 C 196.574219 169.726562 192.449219 168.898438 185.699219 167.550781 C 174.300781 165.300781 153.300781 163.949219 139.574219 160.648438 C 128.101562 157.875 117 152.773438 108.601562 150.300781 C 102.898438 148.648438 97.273438 148.199219 94.125 146.625 C 92.324219 145.726562 91.125 144.75 90.375 143.625 C 89.773438 142.648438 89.550781 141.601562 89.550781 140.476562 C 89.625 139.125 90.226562 137.101562 91.050781 135.976562 C 91.726562 135.074219 92.398438 134.476562 93.675781 134.023438 C 96.074219 133.125 101.023438 133.5 105.375 133.5 C 110.773438 133.5 118.425781 133.875 123.675781 134.550781 C 127.648438 135.074219 131.175781 135.675781 134.175781 136.726562 C 136.648438 137.550781 138.300781 138.976562 140.550781 139.800781 C 142.949219 140.699219 145.125 140.773438 148.351562 141.75 C 154.050781 143.476562 165.601562 148.273438 171.300781 149.925781 C 174.601562 150.898438 176.773438 150.976562 179.324219 151.800781 C 181.726562 152.625 183.898438 153.375 186.226562 154.726562 C 188.925781 156.375 194.101562 159 194.398438 161.324219 C 194.625 163.273438 191.925781 166.351562 189.898438 167.476562 C 187.800781 168.675781 184.648438 168.148438 182.023438 168.148438 C 179.398438 168.148438 177.375 167.925781 174 167.476562 C 168.226562 166.648438 160.050781 164.324219 150.523438 162.824219 C 135.75 160.5 104.476562 160.875 93.75 156.300781 C 88.726562 154.199219 84.300781 150.898438 84 148.351562 C 83.773438 146.398438 86.398438 143.699219 88.425781 142.726562 C 90.675781 141.675781 93.375 142.5 97.199219 142.949219 C 104.625 143.773438 119.773438 148.050781 129.523438 149.699219 C 137.476562 151.050781 143.324219 151.199219 151.425781 152.550781 C 161.625 154.273438 180.226562 157.199219 185.925781 159.675781 C 188.023438 160.574219 189.074219 161.324219 189.898438 162.449219 C 190.574219 163.351562 190.800781 164.398438 190.949219 165.449219 C 191.101562 166.5 191.023438 167.625 190.574219 168.675781 C 189.976562 169.949219 189 171.449219 187.351562 172.199219 C 184.726562 173.476562 180.449219 173.175781 174.976562 172.949219 C 164.25 172.5 139.125 167.25 127.351562 166.199219 C 120.449219 165.601562 117.449219 166.273438 110.851562 165.523438 C 100.648438 164.324219 78.449219 160.726562 72.449219 158.101562 C 70.351562 157.199219 69.449219 156.523438 68.625 155.25 C 67.800781 153.976562 67.5 152.023438 67.726562 150.523438 C 67.949219 149.023438 69 147.375 70.125 146.398438 C 71.25 145.5 72.898438 145.050781 74.625 144.898438 C 76.875 144.75 79.125 145.425781 82.648438 146.25 C 89.625 147.824219 103.875 151.949219 113.25 155.023438 C 121.425781 157.726562 130.5 161.925781 135.976562 163.425781 C 138.898438 164.25 141.226562 163.949219 142.949219 164.625 C 144.148438 165.074219 144.976562 165.523438 145.726562 166.273438 C 146.476562 167.023438 147.148438 168.074219 147.449219 169.050781 C 147.75 170.023438 147.898438 171.148438 147.675781 172.273438 C 147.375 173.625 146.25 175.5 145.273438 176.398438 C 144.449219 177.148438 143.773438 177.449219 142.351562 177.75 C 139.125 178.5 130.949219 178.199219 125.625 177.898438 C 120.75 177.601562 117.523438 177.300781 111.523438 176.25 C 100.726562 174.375 74.550781 168.148438 66.675781 166.050781 C 63.824219 165.300781 62.398438 165.226562 60.898438 164.25 C 59.550781 163.351562 58.351562 162 57.824219 160.574219 C 57.300781 159.148438 57.449219 157.125 57.824219 155.851562 C 58.199219 154.726562 58.875 153.824219 59.699219 153.148438 C 60.523438 152.476562 61.5 151.875 62.625 151.726562 C 63.976562 151.5 67.351562 152.101562 67.351562 152.324219 C 67.351562 152.550781 60.375 153.148438 60.375 153.148438 C 60.375 153.148438 64.949219 151.800781 68.398438 152.175781 C 75.074219 152.925781 88.800781 160.050781 96.824219 162.449219 C 102.523438 164.101562 106.050781 164.851562 111.601562 165.898438 C 118.574219 167.175781 127.425781 167.851562 135.375 169.199219 C 143.398438 170.550781 158.101562 170.925781 159.375 173.851562 C 160.050781 175.425781 157.273438 179.476562 155.625 179.851562 C 153.976562 180.226562 151.726562 177.824219 149.625 176.25 C 147 174.300781 142.273438 171.375 141.523438 168.675781 C 140.925781 166.574219 141.824219 163.648438 143.175781 162.148438 C 144.523438 160.574219 146.699219 159.898438 149.550781 159.449219 C 154.574219 158.625 166.351562 159.898438 171.449219 160.949219 C 174.300781 161.550781 176.851562 161.398438 177.976562 163.199219 C 179.550781 165.675781 178.726562 174.898438 176.324219 176.550781 C 174 178.125 167.851562 174.148438 164.398438 173.550781 C 161.773438 173.101562 159.675781 173.476562 157.425781 172.949219 C 155.175781 172.425781 151.875 172.273438 150.824219 170.625 C 149.625 168.75 150.300781 162.375 151.726562 161.625 C 153.148438 160.875 156.976562 164.101562 159.226562 165.675781 C 161.398438 167.175781 163.5 168.75 165.074219 170.625 C 166.574219 172.425781 168.074219 174.523438 168.449219 176.699219 C 168.824219 178.949219 168.675781 182.101562 167.175781 183.824219 C 165.449219 185.851562 162.226562 186.675781 157.574219 187.050781 C 145.875 187.875 110.324219 179.699219 95.101562 175.875 C 86.023438 173.625 78.449219 171.898438 73.800781 169.050781 C 70.949219 167.324219 70.273438 164.023438 68.023438 163.273438 C 65.925781 162.601562 62.625 164.925781 60.898438 164.25 C 59.476562 163.726562 58.351562 162 57.824219 160.574219 C 57.300781 159.148438 57.300781 157.199219 57.824219 155.851562 C 58.351562 154.425781 59.699219 152.925781 61.050781 152.25 C 62.398438 151.574219 63.449219 151.574219 65.851562 151.726562 C 73.800781 152.175781 102.074219 161.550781 116.324219 163.5 C 126.523438 164.925781 138.226562 162.898438 142.949219 164.625 C 144.976562 165.375 145.949219 166.425781 146.773438 167.550781 C 147.449219 168.449219 147.675781 169.574219 147.75 170.625 C 147.824219 171.675781 147.601562 172.800781 147.226562 173.773438 C 146.851562 174.75 146.101562 175.726562 145.273438 176.398438 C 144.449219 177.074219 143.625 177.523438 142.351562 177.75 C 140.023438 178.125 135.898438 177.449219 132.375 176.476562 C 127.949219 175.273438 124.199219 172.574219 117.976562 170.398438 C 107.175781 166.648438 79.125 161.324219 72.449219 158.101562 C 70.351562 157.050781 69.449219 156.375 68.625 155.25 C 67.949219 154.351562 67.726562 153.226562 67.648438 152.175781 C 67.574219 151.125 67.648438 150 68.175781 148.949219 C 68.773438 147.75 70.273438 146.175781 71.476562 145.5 C 72.449219 144.976562 73.050781 144.898438 74.625 144.898438 C 79.875 144.898438 96.675781 149.925781 108.148438 151.574219 C 120.148438 153.300781 133.574219 153.449219 145.273438 154.875 C 155.773438 156.148438 167.476562 158.773438 174.976562 159.449219 C 179.476562 159.824219 183.523438 159.074219 185.925781 159.675781 C 187.199219 160.050781 188.023438 160.5 188.773438 161.175781 C 189.523438 161.851562 190.273438 162.75 190.574219 163.875 C 190.949219 165.226562 191.023438 167.398438 190.574219 168.675781 C 190.199219 169.726562 189.601562 170.625 188.699219 171.300781 C 187.574219 172.125 185.773438 172.726562 184.199219 172.949219 C 182.625 173.175781 181.574219 172.875 179.175781 172.5 C 172.875 171.523438 156 166.800781 145.125 164.851562 C 135.148438 163.125 124.5 162.601562 116.398438 161.101562 C 110.324219 159.976562 105.148438 158.851562 100.726562 157.425781 C 97.351562 156.375 93.148438 156.148438 91.949219 153.898438 C 90.601562 151.425781 91.425781 144.300781 94.125 142.425781 C 97.875 139.726562 110.324219 145.199219 117 145.875 C 122.25 146.398438 125.851562 146.023438 131.023438 146.550781 C 137.625 147.148438 145.273438 148.351562 153.523438 149.699219 C 163.574219 151.351562 185.398438 151.949219 186.976562 156.074219 C 187.949219 158.550781 182.773438 164.699219 179.324219 165.824219 C 175.425781 167.101562 170.398438 163.726562 164.324219 161.851562 C 154.574219 158.773438 139.199219 150.675781 126.976562 148.199219 C 115.875 145.949219 99.523438 148.648438 94.125 146.625 C 92.101562 145.875 91.125 144.898438 90.375 143.625 C 89.625 142.351562 89.398438 140.324219 89.699219 138.898438 C 90 137.398438 91.050781 135.75 92.25 134.851562 C 93.449219 133.949219 94.800781 133.574219 96.824219 133.5 C 100.574219 133.425781 106.800781 135.75 112.875 137.550781 C 120.976562 139.949219 132.75 145.050781 140.851562 147.226562 C 146.773438 148.800781 151.5 149.476562 156.675781 150.226562 C 161.625 150.898438 166.273438 150.898438 171.148438 151.5 C 176.175781 152.175781 181.273438 153.074219 186.449219 154.125 C 191.851562 155.175781 198.300781 156.523438 203.023438 157.875 C 206.625 158.925781 209.25 159.898438 212.324219 161.101562 C 215.398438 162.300781 219.300781 163.574219 221.398438 165.148438 C 222.898438 166.273438 223.949219 167.398438 224.476562 168.824219 C 225 170.25 224.773438 172.351562 224.324219 173.625 C 223.949219 174.675781 223.199219 175.574219 222.375 176.25 C 221.550781 176.925781 220.726562 177.449219 219.523438 177.601562 C 217.648438 177.824219 215.550781 177.148438 212.25 176.25 C 204.675781 174.148438 185.550781 166.726562 175.949219 162.75 C 169.425781 160.050781 165.074219 158.101562 159.824219 155.476562 C 154.574219 152.925781 149.175781 149.476562 144.449219 147.226562 C 140.550781 145.351562 135.675781 144.675781 133.574219 142.726562 C 132.226562 141.449219 131.699219 139.726562 131.476562 138.375 C 131.324219 137.25 131.550781 136.125 132 135.148438 C 132.449219 134.175781 133.125 133.273438 133.949219 132.601562 C 134.773438 131.925781 135.601562 131.324219 136.875 131.175781 C 138.898438 130.949219 141.898438 132.449219 144.976562 132.898438 C 149.101562 133.574219 154.726562 133.273438 159.523438 134.324219 C 164.476562 135.375 167.925781 137.324219 174.226562 139.199219 C 185.324219 142.425781 207.148438 148.648438 220.574219 150.976562 C 230.550781 152.699219 242.324219 151.648438 247.125 153.449219 C 249.148438 154.199219 250.199219 155.101562 251.023438 156.226562 C 251.699219 157.125 252.074219 158.175781 252.148438 159.300781 C 252.226562 160.648438 251.851562 162.75 250.949219 163.949219 C 250.050781 165.148438 248.625 166.125 246.976562 166.574219 C 244.648438 167.175781 241.875 166.574219 237.898438 165.824219 C 229.800781 164.324219 213.226562 159.675781 201.824219 155.398438 C 191.023438 151.273438 173.175781 146.699219 171.148438 140.851562 C 169.875 137.175781 177.226562 128.625 177.226562 128.625 " clip-rule="nonzero"/></clipPath><mask id="6eef247dec"><g filter="url(#35066aec80)"><rect x="-37.5" width="450" fill="#000000" y="-37.499999" height="449.999989" fill-opacity="0.5"/></g></mask><clipPath id="e11b244334"><path d="M 0.121094 0.398438 L 195.238281 0.398438 L 195.238281 59.921875 L 0.121094 59.921875 Z M 0.121094 0.398438 " clip-rule="nonzero"/></clipPath><clipPath id="c28388498f"><path d="M 120.226562 0.625 C 158.175781 18.101562 165.601562 19.824219 172.800781 21.699219 C 179.324219 23.425781 188.398438 24.398438 191.625 26.050781 C 192.976562 26.726562 193.425781 27.25 194.023438 28.226562 C 194.699219 29.425781 195.148438 31.601562 195.074219 32.949219 C 195 34.074219 194.625 35.050781 193.949219 35.949219 C 193.125 37 192 38.050781 189.976562 38.574219 C 185.023438 39.851562 172.574219 38.050781 162.375 36.398438 C 149.324219 34.226562 129.375 28.375 118.351562 25.226562 C 111.675781 23.273438 107.550781 21.25 102.300781 20.125 C 97.351562 19.074219 91.949219 19.148438 87.75 18.398438 C 84.523438 17.800781 81.375 17.125 79.351562 16.300781 C 78.148438 15.851562 77.324219 15.550781 76.574219 14.726562 C 75.601562 13.75 74.699219 11.726562 74.476562 10.375 C 74.324219 9.25 74.476562 8.199219 75 7.148438 C 75.601562 5.949219 76.949219 4.375 78.300781 3.699219 C 79.648438 3.023438 81 2.949219 83.101562 3.324219 C 87.898438 4.148438 98.851562 9.851562 105.375 13 C 110.625 15.550781 113.25 17.726562 119.398438 20.5 C 130.050781 25.300781 158.851562 33.699219 164.398438 37.148438 C 165.824219 38.050781 166.273438 38.425781 166.800781 39.398438 C 167.476562 40.601562 168 42.550781 167.773438 44.050781 C 167.550781 45.550781 166.351562 47.351562 165.375 48.25 C 164.550781 49 163.5 49.375 162.523438 49.601562 C 161.476562 49.824219 160.726562 49.824219 159.300781 49.523438 C 156.148438 48.851562 149.773438 45.101562 144.75 43.449219 C 139.574219 41.726562 135.449219 40.898438 128.699219 39.550781 C 117.300781 37.300781 96.300781 35.949219 82.574219 32.648438 C 71.101562 29.875 60 24.773438 51.601562 22.300781 C 45.898438 20.648438 40.273438 20.199219 37.125 18.625 C 35.324219 17.726562 34.125 16.75 33.375 15.625 C 32.773438 14.648438 32.550781 13.601562 32.550781 12.476562 C 32.625 11.125 33.226562 9.101562 34.050781 7.976562 C 34.726562 7.074219 35.398438 6.476562 36.675781 6.023438 C 39.074219 5.125 44.023438 5.5 48.375 5.5 C 53.773438 5.5 61.425781 5.875 66.675781 6.550781 C 70.648438 7.074219 74.175781 7.675781 77.175781 8.726562 C 79.648438 9.550781 81.300781 10.976562 83.550781 11.800781 C 85.949219 12.699219 88.125 12.773438 91.351562 13.75 C 97.050781 15.476562 108.601562 20.273438 114.300781 21.925781 C 117.601562 22.898438 119.773438 22.976562 122.324219 23.800781 C 124.726562 24.625 126.898438 25.375 129.226562 26.726562 C 131.925781 28.375 137.101562 31 137.398438 33.324219 C 137.625 35.273438 134.925781 38.351562 132.898438 39.476562 C 130.800781 40.675781 127.648438 40.148438 125.023438 40.148438 C 122.398438 40.148438 120.375 39.925781 117 39.476562 C 111.226562 38.648438 103.050781 36.324219 93.523438 34.824219 C 78.75 32.5 47.476562 32.875 36.75 28.300781 C 31.726562 26.199219 27.300781 22.898438 27 20.351562 C 26.773438 18.398438 29.398438 15.699219 31.425781 14.726562 C 33.675781 13.675781 36.375 14.5 40.199219 14.949219 C 47.625 15.773438 62.773438 20.050781 72.523438 21.699219 C 80.476562 23.050781 86.324219 23.199219 94.425781 24.550781 C 104.625 26.273438 123.226562 29.199219 128.925781 31.675781 C 131.023438 32.574219 132.074219 33.324219 132.898438 34.449219 C 133.574219 35.351562 133.800781 36.398438 133.949219 37.449219 C 134.101562 38.5 134.023438 39.625 133.574219 40.675781 C 132.976562 41.949219 132 43.449219 130.351562 44.199219 C 127.726562 45.476562 123.449219 45.175781 117.976562 44.949219 C 107.25 44.5 82.125 39.25 70.351562 38.199219 C 63.449219 37.601562 60.449219 38.273438 53.851562 37.523438 C 43.648438 36.324219 21.449219 32.726562 15.449219 30.101562 C 13.351562 29.199219 12.449219 28.523438 11.625 27.25 C 10.800781 25.976562 10.5 24.023438 10.726562 22.523438 C 10.949219 21.023438 12 19.375 13.125 18.398438 C 14.25 17.5 15.898438 17.050781 17.625 16.898438 C 19.875 16.75 22.125 17.425781 25.648438 18.25 C 32.625 19.824219 46.875 23.949219 56.25 27.023438 C 64.425781 29.726562 73.5 33.925781 78.976562 35.425781 C 81.898438 36.25 84.226562 35.949219 85.949219 36.625 C 87.148438 37.074219 87.976562 37.523438 88.726562 38.273438 C 89.476562 39.023438 90.148438 40.074219 90.449219 41.050781 C 90.75 42.023438 90.898438 43.148438 90.675781 44.273438 C 90.375 45.625 89.25 47.5 88.273438 48.398438 C 87.449219 49.148438 86.773438 49.449219 85.351562 49.75 C 82.125 50.5 73.949219 50.199219 68.625 49.898438 C 63.75 49.601562 60.523438 49.300781 54.523438 48.25 C 43.726562 46.375 17.550781 40.148438 9.675781 38.050781 C 6.824219 37.300781 5.398438 37.226562 3.898438 36.25 C 2.550781 35.351562 1.351562 34 0.824219 32.574219 C 0.300781 31.148438 0.449219 29.125 0.824219 27.851562 C 1.199219 26.726562 1.875 25.824219 2.699219 25.148438 C 3.523438 24.476562 4.5 23.875 5.625 23.726562 C 6.976562 23.5 10.351562 24.101562 10.351562 24.324219 C 10.351562 24.550781 3.375 25.148438 3.375 25.148438 C 3.375 25.148438 7.949219 23.800781 11.398438 24.175781 C 18.074219 24.925781 31.800781 32.050781 39.824219 34.449219 C 45.523438 36.101562 49.050781 36.851562 54.601562 37.898438 C 61.574219 39.175781 70.425781 39.851562 78.375 41.199219 C 86.398438 42.550781 101.101562 42.925781 102.375 45.851562 C 103.050781 47.425781 100.273438 51.476562 98.625 51.851562 C 96.976562 52.226562 94.726562 49.824219 92.625 48.25 C 90 46.300781 85.273438 43.375 84.523438 40.675781 C 83.925781 38.574219 84.824219 35.648438 86.175781 34.148438 C 87.523438 32.574219 89.699219 31.898438 92.550781 31.449219 C 97.574219 30.625 109.351562 31.898438 114.449219 32.949219 C 117.300781 33.550781 119.851562 33.398438 120.976562 35.199219 C 122.550781 37.675781 121.726562 46.898438 119.324219 48.550781 C 117 50.125 110.851562 46.148438 107.398438 45.550781 C 104.773438 45.101562 102.675781 45.476562 100.425781 44.949219 C 98.175781 44.425781 94.875 44.273438 93.824219 42.625 C 92.625 40.75 93.300781 34.375 94.726562 33.625 C 96.148438 32.875 99.976562 36.101562 102.226562 37.675781 C 104.398438 39.175781 106.5 40.75 108.074219 42.625 C 109.574219 44.425781 111.074219 46.523438 111.449219 48.699219 C 111.824219 50.949219 111.675781 54.101562 110.175781 55.824219 C 108.449219 57.851562 105.226562 58.675781 100.574219 59.050781 C 88.875 59.875 53.324219 51.699219 38.101562 47.875 C 29.023438 45.625 21.449219 43.898438 16.800781 41.050781 C 13.949219 39.324219 13.273438 36.023438 11.023438 35.273438 C 8.925781 34.601562 5.625 36.925781 3.898438 36.25 C 2.476562 35.726562 1.351562 34 0.824219 32.574219 C 0.300781 31.148438 0.300781 29.199219 0.824219 27.851562 C 1.351562 26.425781 2.699219 24.925781 4.050781 24.25 C 5.398438 23.574219 6.449219 23.574219 8.851562 23.726562 C 16.800781 24.175781 45.074219 33.550781 59.324219 35.5 C 69.523438 36.925781 81.226562 34.898438 85.949219 36.625 C 87.976562 37.375 88.949219 38.425781 89.773438 39.550781 C 90.449219 40.449219 90.675781 41.574219 90.75 42.625 C 90.824219 43.675781 90.601562 44.800781 90.226562 45.773438 C 89.851562 46.75 89.101562 47.726562 88.273438 48.398438 C 87.449219 49.074219 86.625 49.523438 85.351562 49.75 C 83.023438 50.125 78.898438 49.449219 75.375 48.476562 C 70.949219 47.273438 67.199219 44.574219 60.976562 42.398438 C 50.175781 38.648438 22.125 33.324219 15.449219 30.101562 C 13.351562 29.050781 12.449219 28.375 11.625 27.25 C 10.949219 26.351562 10.726562 25.226562 10.648438 24.175781 C 10.574219 23.125 10.648438 22 11.175781 20.949219 C 11.773438 19.75 13.273438 18.175781 14.476562 17.5 C 15.449219 16.976562 16.050781 16.898438 17.625 16.898438 C 22.875 16.898438 39.675781 21.925781 51.148438 23.574219 C 63.148438 25.300781 76.574219 25.449219 88.273438 26.875 C 98.773438 28.148438 110.476562 30.773438 117.976562 31.449219 C 122.476562 31.824219 126.523438 31.074219 128.925781 31.675781 C 130.199219 32.050781 131.023438 32.5 131.773438 33.175781 C 132.523438 33.851562 133.273438 34.75 133.574219 35.875 C 133.949219 37.226562 134.023438 39.398438 133.574219 40.675781 C 133.199219 41.726562 132.601562 42.625 131.699219 43.300781 C 130.574219 44.125 128.773438 44.726562 127.199219 44.949219 C 125.625 45.175781 124.574219 44.875 122.175781 44.5 C 115.875 43.523438 99 38.800781 88.125 36.851562 C 78.148438 35.125 67.5 34.601562 59.398438 33.101562 C 53.324219 31.976562 48.148438 30.851562 43.726562 29.425781 C 40.351562 28.375 36.148438 28.148438 34.949219 25.898438 C 33.601562 23.425781 34.425781 16.300781 37.125 14.425781 C 40.875 11.726562 53.324219 17.199219 60 17.875 C 65.25 18.398438 68.851562 18.023438 74.023438 18.550781 C 80.625 19.148438 88.273438 20.351562 96.523438 21.699219 C 106.574219 23.351562 128.398438 23.949219 129.976562 28.074219 C 130.949219 30.550781 125.773438 36.699219 122.324219 37.824219 C 118.425781 39.101562 113.398438 35.726562 107.324219 33.851562 C 97.574219 30.773438 82.199219 22.675781 69.976562 20.199219 C 58.875 17.949219 42.523438 20.648438 37.125 18.625 C 35.101562 17.875 34.125 16.898438 33.375 15.625 C 32.625 14.351562 32.398438 12.324219 32.699219 10.898438 C 33 9.398438 34.050781 7.75 35.25 6.851562 C 36.449219 5.949219 37.800781 5.574219 39.824219 5.5 C 43.574219 5.425781 49.800781 7.75 55.875 9.550781 C 63.976562 11.949219 75.75 17.050781 83.851562 19.226562 C 89.773438 20.800781 94.5 21.476562 99.675781 22.226562 C 104.625 22.898438 109.273438 22.898438 114.148438 23.5 C 119.175781 24.175781 124.273438 25.074219 129.449219 26.125 C 134.851562 27.175781 141.300781 28.523438 146.023438 29.875 C 149.625 30.925781 152.25 31.898438 155.324219 33.101562 C 158.398438 34.300781 162.300781 35.574219 164.398438 37.148438 C 165.898438 38.273438 166.949219 39.398438 167.476562 40.824219 C 168 42.25 167.773438 44.351562 167.324219 45.625 C 166.949219 46.675781 166.199219 47.574219 165.375 48.25 C 164.550781 48.925781 163.726562 49.449219 162.523438 49.601562 C 160.648438 49.824219 158.550781 49.148438 155.25 48.25 C 147.675781 46.148438 128.550781 38.726562 118.949219 34.75 C 112.425781 32.050781 108.074219 30.101562 102.824219 27.476562 C 97.574219 24.925781 92.175781 21.476562 87.449219 19.226562 C 83.550781 17.351562 78.675781 16.675781 76.574219 14.726562 C 75.226562 13.449219 74.699219 11.726562 74.476562 10.375 C 74.324219 9.25 74.550781 8.125 75 7.148438 C 75.449219 6.175781 76.125 5.273438 76.949219 4.601562 C 77.773438 3.925781 78.601562 3.324219 79.875 3.175781 C 81.898438 2.949219 84.898438 4.449219 87.976562 4.898438 C 92.101562 5.574219 97.726562 5.273438 102.523438 6.324219 C 107.476562 7.375 110.925781 9.324219 117.226562 11.199219 C 128.324219 14.425781 150.148438 20.648438 163.574219 22.976562 C 173.550781 24.699219 185.324219 23.648438 190.125 25.449219 C 192.148438 26.199219 193.199219 27.101562 194.023438 28.226562 C 194.699219 29.125 195.074219 30.175781 195.148438 31.300781 C 195.226562 32.648438 194.851562 34.75 193.949219 35.949219 C 193.050781 37.148438 191.625 38.125 189.976562 38.574219 C 187.648438 39.175781 184.875 38.574219 180.898438 37.824219 C 172.800781 36.324219 156.226562 31.675781 144.824219 27.398438 C 134.023438 23.273438 116.175781 18.699219 114.148438 12.851562 C 112.875 9.175781 120.226562 0.625 120.226562 0.625 " clip-rule="nonzero"/></clipPath><clipPath id="125a8b1956"><rect x="0" width="196" y="0" height="60"/></clipPath><clipPath id="1e06fb8ed2"><path d="M 72.628906 138.300781 L 227.894531 138.300781 L 227.894531 182 L 72.628906 182 Z M 72.628906 138.300781 " clip-rule="nonzero"/></clipPath><clipPath id="389ff9b531"><path d="M 93.824219 148.949219 C 118.648438 152.851562 163.351562 162.074219 170.398438 165.449219 C 171.976562 166.199219 172.273438 166.5 172.949219 167.476562 C 173.699219 168.601562 174.449219 170.550781 174.375 172.050781 C 174.300781 173.550781 173.398438 175.351562 172.351562 176.398438 C 171.300781 177.449219 170.25 178.125 168 178.351562 C 161.476562 178.875 140.699219 171.675781 128.625 168.226562 C 118.273438 165.300781 104.476562 162.226562 99.898438 159.226562 C 98.023438 158.023438 97.273438 156.898438 96.75 155.625 C 96.300781 154.574219 96.226562 153.449219 96.375 152.398438 C 96.523438 151.351562 96.976562 150.226562 97.574219 149.398438 C 98.175781 148.574219 99.074219 147.75 99.976562 147.300781 C 100.875 146.851562 101.773438 146.625 103.125 146.550781 C 105.449219 146.398438 108.675781 147.074219 112.875 147.75 C 120.675781 149.023438 136.351562 152.101562 146.101562 154.273438 C 153.75 156 162.75 157.199219 166.574219 159.300781 C 168.375 160.273438 169.351562 161.25 170.023438 162.601562 C 170.699219 163.949219 170.851562 165.976562 170.398438 167.398438 C 169.949219 168.824219 168.824219 170.398438 167.550781 171.226562 C 166.273438 172.050781 165.074219 172.351562 162.898438 172.199219 C 157.5 171.898438 143.925781 165.375 135.074219 162.75 C 127.199219 160.425781 116.023438 159.074219 112.574219 156.976562 C 111.300781 156.148438 110.851562 155.476562 110.398438 154.5 C 109.949219 153.601562 109.726562 152.398438 109.726562 151.351562 C 109.726562 150.300781 109.875 149.175781 110.476562 148.199219 C 111.226562 147 112.425781 145.800781 114.148438 145.125 C 117.074219 144.074219 122.925781 144.675781 127.199219 144.976562 C 131.476562 145.273438 135.675781 146.25 139.800781 147 C 143.851562 147.75 147.148438 148.199219 151.875 149.398438 C 158.851562 151.125 173.023438 154.574219 177.601562 157.125 C 179.550781 158.175781 180.523438 158.925781 181.199219 160.273438 C 181.875 161.550781 182.101562 163.574219 181.726562 165 C 181.351562 166.425781 180.226562 168.148438 179.023438 168.976562 C 177.824219 169.800781 176.398438 170.175781 174.375 170.101562 C 170.550781 169.875 163.199219 166.5 158.101562 164.25 C 153.226562 162.148438 147.824219 159.898438 144.375 157.125 C 141.675781 155.023438 138.601562 152.476562 138.226562 150.074219 C 137.925781 148.050781 139.199219 145.050781 140.851562 143.773438 C 142.648438 142.351562 145.949219 142.351562 149.175781 142.5 C 153.898438 142.800781 159.375 145.574219 166.5 147.226562 C 177.675781 149.851562 204 152.324219 210.148438 155.625 C 212.175781 156.675781 212.925781 157.648438 213.523438 159 C 214.125 160.351562 214.199219 162.375 213.75 163.800781 C 213.300781 165.226562 212.023438 166.800781 210.75 167.550781 C 209.476562 168.300781 207.824219 168.601562 206.023438 168.375 C 203.476562 168.074219 201.148438 166.125 197.101562 164.550781 C 188.851562 161.398438 164.175781 154.425781 159.226562 151.5 C 157.800781 150.675781 157.425781 150.300781 156.824219 149.324219 C 156.148438 148.125 155.625 145.949219 155.773438 144.601562 C 155.851562 143.476562 156.449219 142.5 157.050781 141.675781 C 157.648438 140.851562 158.25 140.101562 159.523438 139.574219 C 162.375 138.449219 169.425781 138.449219 175.125 138.824219 C 182.101562 139.273438 191.476562 141.375 198.375 142.800781 C 203.925781 143.925781 210.300781 144.675781 213.300781 146.476562 C 215.023438 147.523438 216 148.648438 216.523438 150.074219 C 217.050781 151.5 216.976562 153.449219 216.449219 154.875 C 215.925781 156.300781 214.648438 157.800781 213.300781 158.476562 C 211.949219 159.148438 210.375 159.300781 208.5 159 C 205.648438 158.550781 200.25 156.148438 198.148438 154.648438 C 197.023438 153.824219 196.425781 153.300781 195.976562 152.25 C 195.375 150.976562 195.148438 148.875 195.375 147.523438 C 195.601562 146.398438 196.199219 145.425781 196.875 144.675781 C 197.550781 143.851562 198.523438 143.175781 199.5 142.800781 C 200.476562 142.425781 201.300781 142.273438 202.726562 142.351562 C 205.425781 142.425781 210.824219 143.625 214.425781 144.675781 C 217.648438 145.648438 221.25 146.398438 223.425781 148.199219 C 225.375 149.773438 227.324219 152.25 227.398438 154.5 C 227.476562 157.050781 225.226562 161.023438 222.976562 162.75 C 220.800781 164.398438 217.875 164.324219 214.425781 164.773438 C 209.324219 165.375 201.675781 165.148438 195.300781 164.925781 C 188.925781 164.699219 184.199219 164.324219 176.25 163.425781 C 162.898438 161.925781 134.398438 157.050781 122.925781 155.773438 C 117.449219 155.175781 113.699219 155.851562 110.851562 154.800781 C 109.050781 154.125 107.773438 153.300781 106.949219 152.023438 C 106.125 150.824219 105.601562 148.875 105.824219 147.375 C 106.050781 145.875 107.101562 144.148438 108.074219 143.175781 C 108.898438 142.351562 109.648438 141.898438 110.925781 141.675781 C 113.101562 141.300781 116.398438 142.199219 120.300781 143.101562 C 127.199219 144.675781 143.101562 148.125 148.574219 151.648438 C 151.425781 153.523438 153.675781 155.550781 153.976562 157.726562 C 154.273438 159.824219 152.324219 162.976562 150.601562 164.398438 C 148.875 165.75 146.324219 165.824219 143.699219 166.125 C 140.25 166.5 136.875 166.273438 131.476562 165.75 C 120.824219 164.773438 90.300781 160.726562 84.375 158.324219 C 82.875 157.726562 82.425781 157.351562 81.75 156.449219 C 80.925781 155.324219 80.175781 153.300781 80.101562 151.949219 C 80.023438 150.824219 80.324219 149.773438 80.925781 148.800781 C 81.675781 147.675781 83.324219 146.25 84.601562 145.726562 C 85.648438 145.273438 86.398438 145.273438 87.824219 145.351562 C 90.523438 145.425781 94.726562 146.476562 99.824219 147.523438 C 108.824219 149.324219 129.226562 152.625 137.101562 155.925781 C 141.226562 157.648438 144.675781 158.925781 145.726562 161.476562 C 146.699219 163.949219 145.425781 168.976562 143.476562 171 C 141.449219 173.023438 137.699219 172.875 133.648438 173.398438 C 127.5 174.148438 117.148438 174.074219 109.800781 173.550781 C 103.351562 173.101562 96.601562 171.976562 91.800781 171 C 88.574219 170.324219 86.101562 169.949219 83.851562 168.898438 C 81.898438 168 79.875 166.875 78.824219 165.449219 C 77.925781 164.175781 77.324219 162.375 77.476562 160.875 C 77.625 159.375 78.523438 157.648438 79.574219 156.601562 C 80.699219 155.550781 82.050781 155.023438 84 154.726562 C 87.148438 154.199219 92.25 155.023438 97.050781 155.851562 C 103.199219 156.898438 113.699219 159.449219 117.824219 161.398438 C 119.773438 162.300781 120.898438 163.125 121.726562 164.25 C 122.398438 165.148438 122.699219 166.199219 122.773438 167.25 C 122.851562 168.300781 122.699219 169.5 122.324219 170.476562 C 121.949219 171.449219 121.273438 172.425781 120.449219 173.101562 C 119.625 173.773438 118.875 174.148438 117.523438 174.523438 C 114.75 175.273438 109.125 175.273438 104.398438 175.351562 C 98.925781 175.5 91.875 175.726562 86.699219 175.050781 C 82.574219 174.523438 78.074219 173.925781 75.824219 172.351562 C 74.324219 171.300781 73.5 169.726562 73.125 168.375 C 72.824219 167.324219 72.824219 166.199219 73.199219 165.148438 C 73.648438 163.875 74.851562 162.074219 75.976562 161.25 C 76.875 160.574219 77.398438 160.351562 79.050781 160.199219 C 85.726562 159.523438 119.773438 165.226562 130.273438 166.800781 C 134.925781 167.550781 138 167.398438 140.398438 168.601562 C 142.050781 169.425781 143.25 170.625 143.925781 171.824219 C 144.449219 172.800781 144.601562 173.925781 144.601562 174.976562 C 144.601562 176.023438 144.375 177.148438 143.773438 178.125 C 143.023438 179.25 141.375 180.675781 140.101562 181.199219 C 139.050781 181.648438 136.875 181.425781 136.875 181.5 C 136.875 181.574219 138 181.949219 138.375 181.574219 C 139.425781 180.523438 136.351562 169.125 137.398438 168.074219 C 137.699219 167.699219 138.226562 168 138.824219 168.148438 C 139.875 168.449219 142.050781 169.351562 143.023438 170.476562 C 144 171.601562 144.601562 173.476562 144.601562 174.976562 C 144.601562 176.476562 143.773438 178.273438 142.800781 179.398438 C 141.75 180.523438 140.851562 181.199219 138.523438 181.574219 C 130.199219 183 86.101562 175.425781 78.824219 173.550781 C 77.175781 173.101562 76.726562 173.023438 75.824219 172.351562 C 74.773438 171.449219 73.5 169.726562 73.125 168.375 C 72.824219 167.324219 72.824219 166.199219 73.199219 165.148438 C 73.648438 163.875 74.851562 162.074219 75.976562 161.25 C 76.875 160.574219 77.625 160.351562 79.050781 160.199219 C 82.351562 159.824219 89.550781 161.699219 95.476562 161.925781 C 102.375 162.226562 113.550781 160.050781 117.824219 161.398438 C 119.773438 162 120.898438 163.125 121.726562 164.25 C 122.398438 165.148438 122.699219 166.199219 122.773438 167.25 C 122.851562 168.300781 122.699219 169.5 122.324219 170.476562 C 121.949219 171.449219 121.351562 172.425781 120.449219 173.101562 C 119.324219 173.925781 118.050781 174.601562 115.875 174.675781 C 110.925781 174.898438 97.273438 169.648438 90.898438 168.523438 C 87 167.851562 83.550781 168.675781 81.300781 167.550781 C 79.726562 166.800781 78.601562 165.300781 78 164.101562 C 77.476562 163.050781 77.324219 162 77.476562 160.875 C 77.699219 159.523438 78.523438 157.648438 79.574219 156.601562 C 80.699219 155.550781 82.199219 154.800781 84 154.726562 C 86.625 154.574219 90.449219 156.898438 93.824219 157.648438 C 97.199219 158.398438 100.050781 159 104.25 159.375 C 110.550781 159.976562 122.773438 158.550781 127.949219 159.976562 C 130.726562 160.726562 132.375 161.699219 134.023438 163.273438 C 135.824219 165 139.050781 168.824219 138.226562 170.023438 C 135.976562 173.25 90.75 161.175781 84.375 158.324219 C 82.800781 157.648438 82.425781 157.351562 81.75 156.449219 C 80.925781 155.324219 80.175781 153.300781 80.101562 151.949219 C 80.023438 150.824219 80.324219 149.773438 80.925781 148.800781 C 81.675781 147.675781 83.324219 146.25 84.601562 145.726562 C 85.648438 145.273438 86.101562 145.351562 87.824219 145.351562 C 95.25 145.5 142.875 147.976562 146.023438 154.050781 C 147.375 156.601562 144.523438 161.925781 141.449219 163.273438 C 136.050781 165.675781 115.574219 156.675781 110.851562 154.800781 C 109.351562 154.199219 108.75 153.976562 108 153.300781 C 107.25 152.625 106.5 151.726562 106.199219 150.601562 C 105.824219 149.25 105.75 147.074219 106.199219 145.800781 C 106.574219 144.75 107.25 143.851562 108.074219 143.175781 C 108.824219 142.5 109.574219 141.976562 110.925781 141.675781 C 113.398438 141.148438 117 141.75 122.25 142.273438 C 134.550781 143.398438 166.351562 149.25 183.523438 150.601562 C 195.976562 151.574219 213.226562 147.976562 215.773438 151.425781 C 216.976562 153.074219 215.625 157.425781 213.824219 158.476562 C 211.125 160.050781 200.851562 156.300781 198.148438 154.648438 C 196.949219 153.898438 196.5 153.148438 195.976562 152.25 C 195.523438 151.351562 195.148438 150.226562 195.226562 149.101562 C 195.300781 147.75 195.898438 145.800781 196.875 144.675781 C 197.851562 143.550781 199.574219 142.648438 201.074219 142.425781 C 202.574219 142.199219 204.824219 142.574219 205.726562 143.476562 C 206.550781 144.300781 205.574219 146.699219 206.476562 147.375 C 207.675781 148.199219 211.949219 146.101562 213.300781 146.476562 C 213.976562 146.625 214.199219 146.925781 214.648438 147.449219 C 215.398438 148.351562 216.75 150.226562 216.898438 151.726562 C 217.050781 153.226562 216.375 155.101562 215.699219 156.300781 C 215.101562 157.273438 214.351562 158.023438 213.300781 158.476562 C 212.023438 159.074219 210.75 159.074219 208.5 159 C 202.875 158.773438 186.675781 154.199219 179.476562 153.074219 C 175.273438 152.398438 172.726562 152.101562 169.5 151.949219 C 166.5 151.800781 162.976562 152.773438 160.726562 152.101562 C 159.074219 151.574219 157.648438 150.449219 156.824219 149.324219 C 156.148438 148.425781 155.851562 147.300781 155.773438 146.25 C 155.699219 145.199219 155.699219 144.074219 156.226562 143.023438 C 156.824219 141.824219 158.175781 140.25 159.523438 139.574219 C 160.875 138.898438 162 138.824219 164.25 139.125 C 170.550781 139.875 190.726562 147.824219 199.050781 150.976562 C 203.851562 152.773438 207.601562 153.898438 210.148438 155.625 C 211.726562 156.675781 212.925781 157.800781 213.523438 159 C 214.050781 159.976562 214.125 161.175781 214.050781 162.226562 C 213.976562 163.273438 213.601562 164.398438 213.074219 165.300781 C 212.550781 166.199219 211.648438 167.023438 210.75 167.550781 C 209.851562 168.074219 209.25 168.375 207.675781 168.449219 C 202.125 168.75 179.398438 163.800781 170.101562 161.773438 C 164.476562 160.574219 160.800781 159.898438 156.75 158.398438 C 153.148438 157.050781 147.226562 155.398438 146.925781 153.375 C 146.625 151.5 150.675781 147.375 153.449219 146.925781 C 156.976562 146.324219 162.523438 151.574219 166.800781 153.375 C 170.550781 154.949219 175.273438 155.925781 177.601562 157.125 C 178.800781 157.726562 179.550781 158.023438 180.226562 158.925781 C 181.050781 159.976562 181.875 162.074219 181.949219 163.425781 C 182.023438 164.550781 181.800781 165.601562 181.199219 166.574219 C 180.523438 167.773438 178.875 169.199219 177.601562 169.726562 C 176.550781 170.175781 175.949219 170.25 174.375 170.101562 C 169.875 169.726562 157.273438 164.550781 148.949219 162.601562 C 141.226562 160.726562 132.675781 159.226562 126.226562 158.476562 C 121.574219 157.875 116.773438 158.851562 114 157.726562 C 112.273438 156.976562 111.074219 155.699219 110.398438 154.5 C 109.800781 153.523438 109.726562 152.398438 109.726562 151.351562 C 109.726562 150.300781 109.875 149.175781 110.476562 148.199219 C 111.226562 147 112.800781 145.648438 114.148438 145.125 C 115.5 144.601562 116.625 144.75 118.574219 144.898438 C 122.25 145.273438 128.324219 147 134.550781 148.726562 C 143.398438 151.273438 161.398438 156.226562 166.574219 159.300781 C 168.523438 160.425781 169.351562 161.398438 170.023438 162.601562 C 170.550781 163.574219 170.773438 164.625 170.699219 165.75 C 170.550781 167.101562 169.875 169.050781 168.824219 170.175781 C 167.773438 171.226562 166.875 171.976562 164.550781 172.273438 C 155.925781 173.398438 109.648438 163.351562 101.398438 159.824219 C 99.148438 158.851562 98.324219 158.175781 97.5 157.050781 C 96.824219 156.148438 96.449219 155.175781 96.375 154.050781 C 96.300781 152.699219 96.824219 150.601562 97.574219 149.398438 C 98.175781 148.425781 99.074219 147.75 99.976562 147.300781 C 100.875 146.851562 101.851562 146.550781 103.125 146.550781 C 104.925781 146.550781 106.949219 147.226562 109.574219 147.976562 C 114 149.175781 119.925781 151.5 127.050781 153.601562 C 138.226562 156.898438 164.851562 162.601562 170.398438 165.449219 C 171.898438 166.199219 172.273438 166.5 172.949219 167.476562 C 173.699219 168.601562 174.449219 170.550781 174.375 172.050781 C 174.300781 173.550781 173.398438 175.351562 172.351562 176.398438 C 171.300781 177.449219 170.324219 178.125 168 178.351562 C 160.5 179.101562 132.226562 169.800781 118.351562 167.023438 C 108.449219 165 96 166.800781 92.699219 162.523438 C 90.300781 159.449219 93.824219 148.949219 93.824219 148.949219 " clip-rule="nonzero"/></clipPath><mask id="e1a9dd8b3a"><g filter="url(#35066aec80)"><rect x="-37.5" width="450" fill="#000000" y="-37.499999" height="449.999989" fill-opacity="0.5"/></g></mask><clipPath id="d5f3d2c3dc"><path d="M 0.71875 0.300781 L 155.519531 0.300781 L 155.519531 44 L 0.71875 44 Z M 0.71875 0.300781 " clip-rule="nonzero"/></clipPath><clipPath id="5bf2c0acfa"><path d="M 21.824219 10.949219 C 46.648438 14.851562 91.351562 24.074219 98.398438 27.449219 C 99.976562 28.199219 100.273438 28.5 100.949219 29.476562 C 101.699219 30.601562 102.449219 32.550781 102.375 34.050781 C 102.300781 35.550781 101.398438 37.351562 100.351562 38.398438 C 99.300781 39.449219 98.25 40.125 96 40.351562 C 89.476562 40.875 68.699219 33.675781 56.625 30.226562 C 46.273438 27.300781 32.476562 24.226562 27.898438 21.226562 C 26.023438 20.023438 25.273438 18.898438 24.75 17.625 C 24.300781 16.574219 24.226562 15.449219 24.375 14.398438 C 24.523438 13.351562 24.976562 12.226562 25.574219 11.398438 C 26.175781 10.574219 27.074219 9.75 27.976562 9.300781 C 28.875 8.851562 29.773438 8.625 31.125 8.550781 C 33.449219 8.398438 36.675781 9.074219 40.875 9.75 C 48.675781 11.023438 64.351562 14.101562 74.101562 16.273438 C 81.75 18 90.75 19.199219 94.574219 21.300781 C 96.375 22.273438 97.351562 23.25 98.023438 24.601562 C 98.699219 25.949219 98.851562 27.976562 98.398438 29.398438 C 97.949219 30.824219 96.824219 32.398438 95.550781 33.226562 C 94.273438 34.050781 93.074219 34.351562 90.898438 34.199219 C 85.5 33.898438 71.925781 27.375 63.074219 24.75 C 55.199219 22.425781 44.023438 21.074219 40.574219 18.976562 C 39.300781 18.148438 38.851562 17.476562 38.398438 16.5 C 37.949219 15.601562 37.726562 14.398438 37.726562 13.351562 C 37.726562 12.300781 37.875 11.175781 38.476562 10.199219 C 39.226562 9 40.425781 7.800781 42.148438 7.125 C 45.074219 6.074219 50.925781 6.675781 55.199219 6.976562 C 59.476562 7.273438 63.675781 8.25 67.800781 9 C 71.851562 9.75 75.148438 10.199219 79.875 11.398438 C 86.851562 13.125 101.023438 16.574219 105.601562 19.125 C 107.550781 20.175781 108.523438 20.925781 109.199219 22.273438 C 109.875 23.550781 110.101562 25.574219 109.726562 27 C 109.351562 28.425781 108.226562 30.148438 107.023438 30.976562 C 105.824219 31.800781 104.398438 32.175781 102.375 32.101562 C 98.550781 31.875 91.199219 28.5 86.101562 26.25 C 81.226562 24.148438 75.824219 21.898438 72.375 19.125 C 69.675781 17.023438 66.601562 14.476562 66.226562 12.074219 C 65.925781 10.050781 67.199219 7.050781 68.851562 5.773438 C 70.648438 4.351562 73.949219 4.351562 77.175781 4.5 C 81.898438 4.800781 87.375 7.574219 94.5 9.226562 C 105.675781 11.851562 132 14.324219 138.148438 17.625 C 140.175781 18.675781 140.925781 19.648438 141.523438 21 C 142.125 22.351562 142.199219 24.375 141.75 25.800781 C 141.300781 27.226562 140.023438 28.800781 138.75 29.550781 C 137.476562 30.300781 135.824219 30.601562 134.023438 30.375 C 131.476562 30.074219 129.148438 28.125 125.101562 26.550781 C 116.851562 23.398438 92.175781 16.425781 87.226562 13.5 C 85.800781 12.675781 85.425781 12.300781 84.824219 11.324219 C 84.148438 10.125 83.625 7.949219 83.773438 6.601562 C 83.851562 5.476562 84.449219 4.5 85.050781 3.675781 C 85.648438 2.851562 86.25 2.101562 87.523438 1.574219 C 90.375 0.449219 97.425781 0.449219 103.125 0.824219 C 110.101562 1.273438 119.476562 3.375 126.375 4.800781 C 131.925781 5.925781 138.300781 6.675781 141.300781 8.476562 C 143.023438 9.523438 144 10.648438 144.523438 12.074219 C 145.050781 13.5 144.976562 15.449219 144.449219 16.875 C 143.925781 18.300781 142.648438 19.800781 141.300781 20.476562 C 139.949219 21.148438 138.375 21.300781 136.5 21 C 133.648438 20.550781 128.25 18.148438 126.148438 16.648438 C 125.023438 15.824219 124.425781 15.300781 123.976562 14.25 C 123.375 12.976562 123.148438 10.875 123.375 9.523438 C 123.601562 8.398438 124.199219 7.425781 124.875 6.675781 C 125.550781 5.851562 126.523438 5.175781 127.5 4.800781 C 128.476562 4.425781 129.300781 4.273438 130.726562 4.351562 C 133.425781 4.425781 138.824219 5.625 142.425781 6.675781 C 145.648438 7.648438 149.25 8.398438 151.425781 10.199219 C 153.375 11.773438 155.324219 14.25 155.398438 16.5 C 155.476562 19.050781 153.226562 23.023438 150.976562 24.75 C 148.800781 26.398438 145.875 26.324219 142.425781 26.773438 C 137.324219 27.375 129.675781 27.148438 123.300781 26.925781 C 116.925781 26.699219 112.199219 26.324219 104.25 25.425781 C 90.898438 23.925781 62.398438 19.050781 50.925781 17.773438 C 45.449219 17.175781 41.699219 17.851562 38.851562 16.800781 C 37.050781 16.125 35.773438 15.300781 34.949219 14.023438 C 34.125 12.824219 33.601562 10.875 33.824219 9.375 C 34.050781 7.875 35.101562 6.148438 36.074219 5.175781 C 36.898438 4.351562 37.648438 3.898438 38.925781 3.675781 C 41.101562 3.300781 44.398438 4.199219 48.300781 5.101562 C 55.199219 6.675781 71.101562 10.125 76.574219 13.648438 C 79.425781 15.523438 81.675781 17.550781 81.976562 19.726562 C 82.273438 21.824219 80.324219 24.976562 78.601562 26.398438 C 76.875 27.75 74.324219 27.824219 71.699219 28.125 C 68.25 28.5 64.875 28.273438 59.476562 27.75 C 48.824219 26.773438 18.300781 22.726562 12.375 20.324219 C 10.875 19.726562 10.425781 19.351562 9.75 18.449219 C 8.925781 17.324219 8.175781 15.300781 8.101562 13.949219 C 8.023438 12.824219 8.324219 11.773438 8.925781 10.800781 C 9.675781 9.675781 11.324219 8.25 12.601562 7.726562 C 13.648438 7.273438 14.398438 7.273438 15.824219 7.351562 C 18.523438 7.425781 22.726562 8.476562 27.824219 9.523438 C 36.824219 11.324219 57.226562 14.625 65.101562 17.925781 C 69.226562 19.648438 72.675781 20.925781 73.726562 23.476562 C 74.699219 25.949219 73.425781 30.976562 71.476562 33 C 69.449219 35.023438 65.699219 34.875 61.648438 35.398438 C 55.5 36.148438 45.148438 36.074219 37.800781 35.550781 C 31.351562 35.101562 24.601562 33.976562 19.800781 33 C 16.574219 32.324219 14.101562 31.949219 11.851562 30.898438 C 9.898438 30 7.875 28.875 6.824219 27.449219 C 5.925781 26.175781 5.324219 24.375 5.476562 22.875 C 5.625 21.375 6.523438 19.648438 7.574219 18.601562 C 8.699219 17.550781 10.050781 17.023438 12 16.726562 C 15.148438 16.199219 20.25 17.023438 25.050781 17.851562 C 31.199219 18.898438 41.699219 21.449219 45.824219 23.398438 C 47.773438 24.300781 48.898438 25.125 49.726562 26.25 C 50.398438 27.148438 50.699219 28.199219 50.773438 29.25 C 50.851562 30.300781 50.699219 31.5 50.324219 32.476562 C 49.949219 33.449219 49.273438 34.425781 48.449219 35.101562 C 47.625 35.773438 46.875 36.148438 45.523438 36.523438 C 42.75 37.273438 37.125 37.273438 32.398438 37.351562 C 26.925781 37.5 19.875 37.726562 14.699219 37.050781 C 10.574219 36.523438 6.074219 35.925781 3.824219 34.351562 C 2.324219 33.300781 1.5 31.726562 1.125 30.375 C 0.824219 29.324219 0.824219 28.199219 1.199219 27.148438 C 1.648438 25.875 2.851562 24.074219 3.976562 23.25 C 4.875 22.574219 5.398438 22.351562 7.050781 22.199219 C 13.726562 21.523438 47.773438 27.226562 58.273438 28.800781 C 62.925781 29.550781 66 29.398438 68.398438 30.601562 C 70.050781 31.425781 71.25 32.625 71.925781 33.824219 C 72.449219 34.800781 72.601562 35.925781 72.601562 36.976562 C 72.601562 38.023438 72.375 39.148438 71.773438 40.125 C 71.023438 41.25 69.375 42.675781 68.101562 43.199219 C 67.050781 43.648438 64.875 43.425781 64.875 43.5 C 64.875 43.574219 66 43.949219 66.375 43.574219 C 67.425781 42.523438 64.351562 31.125 65.398438 30.074219 C 65.699219 29.699219 66.226562 30 66.824219 30.148438 C 67.875 30.449219 70.050781 31.351562 71.023438 32.476562 C 72 33.601562 72.601562 35.476562 72.601562 36.976562 C 72.601562 38.476562 71.773438 40.273438 70.800781 41.398438 C 69.75 42.523438 68.851562 43.199219 66.523438 43.574219 C 58.199219 45 14.101562 37.425781 6.824219 35.550781 C 5.175781 35.101562 4.726562 35.023438 3.824219 34.351562 C 2.773438 33.449219 1.5 31.726562 1.125 30.375 C 0.824219 29.324219 0.824219 28.199219 1.199219 27.148438 C 1.648438 25.875 2.851562 24.074219 3.976562 23.25 C 4.875 22.574219 5.625 22.351562 7.050781 22.199219 C 10.351562 21.824219 17.550781 23.699219 23.476562 23.925781 C 30.375 24.226562 41.550781 22.050781 45.824219 23.398438 C 47.773438 24 48.898438 25.125 49.726562 26.25 C 50.398438 27.148438 50.699219 28.199219 50.773438 29.25 C 50.851562 30.300781 50.699219 31.5 50.324219 32.476562 C 49.949219 33.449219 49.351562 34.425781 48.449219 35.101562 C 47.324219 35.925781 46.050781 36.601562 43.875 36.675781 C 38.925781 36.898438 25.273438 31.648438 18.898438 30.523438 C 15 29.851562 11.550781 30.675781 9.300781 29.550781 C 7.726562 28.800781 6.601562 27.300781 6 26.101562 C 5.476562 25.050781 5.324219 24 5.476562 22.875 C 5.699219 21.523438 6.523438 19.648438 7.574219 18.601562 C 8.699219 17.550781 10.199219 16.800781 12 16.726562 C 14.625 16.574219 18.449219 18.898438 21.824219 19.648438 C 25.199219 20.398438 28.050781 21 32.25 21.375 C 38.550781 21.976562 50.773438 20.550781 55.949219 21.976562 C 58.726562 22.726562 60.375 23.699219 62.023438 25.273438 C 63.824219 27 67.050781 30.824219 66.226562 32.023438 C 63.976562 35.25 18.75 23.175781 12.375 20.324219 C 10.800781 19.648438 10.425781 19.351562 9.75 18.449219 C 8.925781 17.324219 8.175781 15.300781 8.101562 13.949219 C 8.023438 12.824219 8.324219 11.773438 8.925781 10.800781 C 9.675781 9.675781 11.324219 8.25 12.601562 7.726562 C 13.648438 7.273438 14.101562 7.351562 15.824219 7.351562 C 23.25 7.5 70.875 9.976562 74.023438 16.050781 C 75.375 18.601562 72.523438 23.925781 69.449219 25.273438 C 64.050781 27.675781 43.574219 18.675781 38.851562 16.800781 C 37.351562 16.199219 36.75 15.976562 36 15.300781 C 35.25 14.625 34.5 13.726562 34.199219 12.601562 C 33.824219 11.25 33.75 9.074219 34.199219 7.800781 C 34.574219 6.75 35.25 5.851562 36.074219 5.175781 C 36.824219 4.5 37.574219 3.976562 38.925781 3.675781 C 41.398438 3.148438 45 3.75 50.25 4.273438 C 62.550781 5.398438 94.351562 11.25 111.523438 12.601562 C 123.976562 13.574219 141.226562 9.976562 143.773438 13.425781 C 144.976562 15.074219 143.625 19.425781 141.824219 20.476562 C 139.125 22.050781 128.851562 18.300781 126.148438 16.648438 C 124.949219 15.898438 124.5 15.148438 123.976562 14.25 C 123.523438 13.351562 123.148438 12.226562 123.226562 11.101562 C 123.300781 9.75 123.898438 7.800781 124.875 6.675781 C 125.851562 5.550781 127.574219 4.648438 129.074219 4.425781 C 130.574219 4.199219 132.824219 4.574219 133.726562 5.476562 C 134.550781 6.300781 133.574219 8.699219 134.476562 9.375 C 135.675781 10.199219 139.949219 8.101562 141.300781 8.476562 C 141.976562 8.625 142.199219 8.925781 142.648438 9.449219 C 143.398438 10.351562 144.75 12.226562 144.898438 13.726562 C 145.050781 15.226562 144.375 17.101562 143.699219 18.300781 C 143.101562 19.273438 142.351562 20.023438 141.300781 20.476562 C 140.023438 21.074219 138.75 21.074219 136.5 21 C 130.875 20.773438 114.675781 16.199219 107.476562 15.074219 C 103.273438 14.398438 100.726562 14.101562 97.5 13.949219 C 94.5 13.800781 90.976562 14.773438 88.726562 14.101562 C 87.074219 13.574219 85.648438 12.449219 84.824219 11.324219 C 84.148438 10.425781 83.851562 9.300781 83.773438 8.25 C 83.699219 7.199219 83.699219 6.074219 84.226562 5.023438 C 84.824219 3.824219 86.175781 2.25 87.523438 1.574219 C 88.875 0.898438 90 0.824219 92.25 1.125 C 98.550781 1.875 118.726562 9.824219 127.050781 12.976562 C 131.851562 14.773438 135.601562 15.898438 138.148438 17.625 C 139.726562 18.675781 140.925781 19.800781 141.523438 21 C 142.050781 21.976562 142.125 23.175781 142.050781 24.226562 C 141.976562 25.273438 141.601562 26.398438 141.074219 27.300781 C 140.550781 28.199219 139.648438 29.023438 138.75 29.550781 C 137.851562 30.074219 137.25 30.375 135.675781 30.449219 C 130.125 30.75 107.398438 25.800781 98.101562 23.773438 C 92.476562 22.574219 88.800781 21.898438 84.75 20.398438 C 81.148438 19.050781 75.226562 17.398438 74.925781 15.375 C 74.625 13.5 78.675781 9.375 81.449219 8.925781 C 84.976562 8.324219 90.523438 13.574219 94.800781 15.375 C 98.550781 16.949219 103.273438 17.925781 105.601562 19.125 C 106.800781 19.726562 107.550781 20.023438 108.226562 20.925781 C 109.050781 21.976562 109.875 24.074219 109.949219 25.425781 C 110.023438 26.550781 109.800781 27.601562 109.199219 28.574219 C 108.523438 29.773438 106.875 31.199219 105.601562 31.726562 C 104.550781 32.175781 103.949219 32.25 102.375 32.101562 C 97.875 31.726562 85.273438 26.550781 76.949219 24.601562 C 69.226562 22.726562 60.675781 21.226562 54.226562 20.476562 C 49.574219 19.875 44.773438 20.851562 42 19.726562 C 40.273438 18.976562 39.074219 17.699219 38.398438 16.5 C 37.800781 15.523438 37.726562 14.398438 37.726562 13.351562 C 37.726562 12.300781 37.875 11.175781 38.476562 10.199219 C 39.226562 9 40.800781 7.648438 42.148438 7.125 C 43.5 6.601562 44.625 6.75 46.574219 6.898438 C 50.25 7.273438 56.324219 9 62.550781 10.726562 C 71.398438 13.273438 89.398438 18.226562 94.574219 21.300781 C 96.523438 22.425781 97.351562 23.398438 98.023438 24.601562 C 98.550781 25.574219 98.773438 26.625 98.699219 27.75 C 98.550781 29.101562 97.875 31.050781 96.824219 32.175781 C 95.773438 33.226562 94.875 33.976562 92.550781 34.273438 C 83.925781 35.398438 37.648438 25.351562 29.398438 21.824219 C 27.148438 20.851562 26.324219 20.175781 25.5 19.050781 C 24.824219 18.148438 24.449219 17.175781 24.375 16.050781 C 24.300781 14.699219 24.824219 12.601562 25.574219 11.398438 C 26.175781 10.425781 27.074219 9.75 27.976562 9.300781 C 28.875 8.851562 29.851562 8.550781 31.125 8.550781 C 32.925781 8.550781 34.949219 9.226562 37.574219 9.976562 C 42 11.175781 47.925781 13.5 55.050781 15.601562 C 66.226562 18.898438 92.851562 24.601562 98.398438 27.449219 C 99.898438 28.199219 100.273438 28.5 100.949219 29.476562 C 101.699219 30.601562 102.449219 32.550781 102.375 34.050781 C 102.300781 35.550781 101.398438 37.351562 100.351562 38.398438 C 99.300781 39.449219 98.324219 40.125 96 40.351562 C 88.5 41.101562 60.226562 31.800781 46.351562 29.023438 C 36.449219 27 24 28.800781 20.699219 24.523438 C 18.300781 21.449219 21.824219 10.949219 21.824219 10.949219 " clip-rule="nonzero"/></clipPath><clipPath id="1ce95ecd77"><rect x="0" width="156" y="0" height="44"/></clipPath><clipPath id="4a976d6177"><path d="M 76 136 L 246.554688 136 L 246.554688 179.855469 L 76 179.855469 Z M 76 136 " clip-rule="nonzero"/></clipPath><clipPath id="d374b6986a"><path d="M 78.976562 158.925781 C 121.199219 164.398438 127.199219 164.101562 130.199219 164.925781 C 131.625 165.300781 132.300781 165.601562 133.125 166.425781 C 134.101562 167.398438 135.148438 169.199219 135.300781 170.699219 C 135.449219 172.199219 135 174.148438 134.175781 175.351562 C 133.351562 176.550781 131.25 177.675781 130.199219 178.050781 C 129.601562 178.273438 129.449219 178.351562 128.550781 178.199219 C 124.648438 177.675781 104.476562 169.5 98.023438 166.425781 C 94.875 164.925781 93.523438 163.5 91.199219 162.523438 C 88.949219 161.550781 85.875 161.398438 84.226562 160.425781 C 83.175781 159.824219 82.425781 159.074219 81.898438 158.175781 C 81.300781 157.273438 80.925781 156.148438 80.851562 155.101562 C 80.773438 154.050781 81 152.925781 81.375 151.949219 C 81.75 150.976562 82.5 150 83.324219 149.324219 C 84.148438 148.648438 85.125 148.125 86.25 147.976562 C 87.601562 147.75 90.976562 148.5 90.976562 148.726562 C 90.976562 148.949219 84.074219 149.25 84.074219 149.175781 C 84.074219 149.101562 88.351562 148.125 91.425781 148.199219 C 96.675781 148.351562 103.800781 150.523438 112.574219 152.476562 C 127.125 155.699219 162.75 162.675781 170.398438 166.574219 C 172.574219 167.699219 173.324219 168.375 174.074219 169.726562 C 174.824219 171 175.050781 173.023438 174.75 174.449219 C 174.449219 175.875 173.101562 177.523438 172.050781 178.425781 C 171.148438 179.101562 169.875 179.476562 169.050781 179.625 C 168.449219 179.773438 168.375 179.851562 167.476562 179.699219 C 162.375 178.949219 123.601562 168 116.773438 161.476562 C 114 158.851562 113.101562 155.699219 113.476562 153.375 C 113.773438 151.273438 116.023438 148.949219 118.050781 147.976562 C 120.375 146.851562 123.976562 147.601562 127.050781 147.675781 C 130.273438 147.75 132.375 147.824219 137.023438 148.574219 C 148.5 150.375 189.449219 158.625 196.125 161.851562 C 197.699219 162.601562 198.074219 162.898438 198.675781 163.875 C 199.425781 165 200.023438 167.101562 200.023438 168.449219 C 200.023438 169.574219 199.726562 170.625 199.050781 171.523438 C 198.226562 172.648438 196.5 174 195.226562 174.449219 C 194.175781 174.824219 193.574219 174.824219 192 174.601562 C 187.125 173.851562 172.425781 166.875 162.675781 163.574219 C 153.226562 160.351562 141.824219 157.648438 134.550781 154.949219 C 129.75 153.226562 125.175781 151.5 122.851562 149.925781 C 121.648438 149.175781 121.050781 148.574219 120.523438 147.675781 C 120 146.773438 119.625 145.648438 119.550781 144.601562 C 119.476562 143.550781 119.625 142.351562 120.074219 141.375 C 120.523438 140.398438 121.199219 139.5 122.023438 138.824219 C 122.851562 138.148438 123.601562 137.773438 124.949219 137.476562 C 127.273438 136.949219 131.851562 137.101562 135.300781 137.175781 C 138.75 137.25 140.925781 137.324219 145.5 138.074219 C 155.175781 139.648438 177 146.101562 190.351562 149.023438 C 200.925781 151.351562 214.5 152.773438 219 154.5 C 220.5 155.101562 221.023438 155.398438 221.773438 156.148438 C 222.523438 156.898438 223.199219 157.949219 223.5 158.925781 C 223.800781 159.898438 223.949219 161.101562 223.726562 162.148438 C 223.5 163.199219 223.125 164.25 222.375 165.074219 C 221.476562 166.125 220.050781 167.175781 218.324219 167.550781 C 215.699219 168.148438 212.25 167.175781 207.824219 166.425781 C 199.800781 165.074219 183.148438 161.101562 174.226562 158.773438 C 168.300781 157.199219 162.226562 155.851562 159.449219 154.351562 C 158.175781 153.675781 157.648438 153.226562 157.050781 152.25 C 156.375 151.050781 155.851562 148.949219 155.925781 147.601562 C 156 146.476562 156.375 145.425781 157.050781 144.523438 C 157.875 143.476562 159.148438 142.425781 160.949219 141.824219 C 163.949219 140.773438 169.949219 140.925781 174.074219 140.925781 C 177.75 140.925781 179.699219 141 184.425781 141.675781 C 195 143.175781 225.148438 149.398438 235.050781 152.175781 C 239.25 153.375 242.101562 154.050781 243.898438 155.398438 C 244.949219 156.148438 245.476562 157.050781 245.851562 158.023438 C 246.226562 159 246.449219 160.050781 246.300781 161.175781 C 246.074219 162.523438 245.101562 164.550781 244.125 165.523438 C 243.375 166.351562 242.324219 166.726562 241.351562 167.023438 C 240.375 167.324219 239.625 167.398438 238.125 167.101562 C 234.074219 166.351562 223.273438 160.425781 216.824219 158.023438 C 211.574219 156.074219 206.625 155.101562 202.425781 153.523438 C 198.976562 152.25 194.476562 149.175781 193.199219 149.550781 C 192.75 149.699219 192.601562 150.601562 192.523438 150.523438 C 192.226562 150.375 192.75 139.199219 195.824219 137.476562 C 199.800781 135.226562 210.226562 141.375 217.648438 144.074219 C 225.75 147 238.273438 151.5 242.550781 154.5 C 244.351562 155.773438 245.25 156.75 245.851562 158.023438 C 246.300781 159 246.449219 160.050781 246.300781 161.175781 C 246.074219 162.523438 245.101562 164.550781 244.125 165.523438 C 243.375 166.351562 242.324219 166.726562 241.351562 167.023438 C 240.375 167.324219 239.476562 167.25 238.125 167.101562 C 235.800781 166.800781 233.25 165.523438 228.976562 164.476562 C 218.925781 162.074219 190.949219 155.476562 178.425781 154.425781 C 171.148438 153.824219 164.699219 156 161.023438 154.949219 C 159.074219 154.425781 157.875 153.449219 157.050781 152.25 C 156.226562 151.050781 155.773438 149.101562 155.925781 147.601562 C 156.074219 146.101562 156.976562 144.300781 158.101562 143.324219 C 159.226562 142.351562 160.5 141.75 162.601562 141.601562 C 167.550781 141.300781 178.574219 146.023438 187.5 148.125 C 197.699219 150.523438 216 152.773438 220.5 155.175781 C 221.925781 155.925781 222.300781 156.449219 222.824219 157.425781 C 223.5 158.625 223.949219 160.648438 223.726562 162.148438 C 223.5 163.648438 222.300781 165.375 221.25 166.273438 C 220.425781 167.023438 219.675781 167.324219 218.324219 167.550781 C 215.773438 167.925781 211.425781 166.875 206.925781 166.125 C 200.324219 165.074219 191.550781 163.273438 182.773438 161.25 C 171.976562 158.773438 157.726562 153.75 147.074219 152.023438 C 138.75 150.675781 128.625 152.175781 124.351562 150.601562 C 122.398438 149.851562 121.273438 148.949219 120.523438 147.675781 C 119.773438 146.398438 119.398438 144.449219 119.625 142.949219 C 119.851562 141.449219 120.898438 139.726562 122.023438 138.824219 C 123.226562 137.851562 124.648438 137.25 126.601562 137.324219 C 130.273438 137.398438 136.125 141.226562 142.273438 143.324219 C 150.75 146.25 163.5 149.476562 172.949219 152.773438 C 181.273438 155.699219 192.375 159.675781 196.125 161.851562 C 197.476562 162.601562 198 163.050781 198.675781 163.875 C 199.273438 164.699219 199.800781 165.675781 199.949219 166.800781 C 200.101562 168.148438 199.726562 170.324219 199.050781 171.523438 C 198.523438 172.5 197.699219 173.25 196.726562 173.773438 C 195.523438 174.375 194.398438 174.675781 192 174.601562 C 184.050781 174.375 150.898438 164.773438 140.625 162.898438 C 136.273438 162.074219 134.25 162.226562 131.324219 161.550781 C 128.625 160.949219 124.875 160.875 123.675781 159.074219 C 122.476562 157.199219 122.398438 151.800781 124.425781 150.449219 C 128.625 147.675781 151.050781 158.851562 159.675781 162.148438 C 164.851562 164.101562 169.5 165.675781 171.824219 167.324219 C 173.023438 168.148438 173.550781 168.675781 174.074219 169.726562 C 174.675781 171 175.050781 173.023438 174.75 174.449219 C 174.449219 175.875 173.101562 177.523438 172.050781 178.425781 C 171.148438 179.101562 170.101562 179.476562 169.050781 179.625 C 167.925781 179.851562 167.023438 179.699219 165.449219 179.476562 C 162.226562 178.949219 157.273438 176.851562 150.976562 175.273438 C 139.648438 172.351562 113.398438 167.699219 102.898438 164.476562 C 97.648438 162.824219 94.726562 160.351562 91.273438 159.824219 C 88.648438 159.449219 85.949219 161.175781 84.226562 160.425781 C 82.800781 159.824219 81.675781 158.175781 81.226562 156.75 C 80.773438 155.324219 80.925781 153.226562 81.375 151.949219 C 81.75 150.898438 82.425781 150 83.324219 149.324219 C 84.449219 148.5 85.648438 147.75 87.824219 147.824219 C 93.976562 147.976562 116.023438 157.648438 122.699219 160.949219 C 125.625 162.375 126.898438 163.949219 128.625 164.699219 C 129.824219 165.226562 130.800781 164.925781 131.773438 165.523438 C 132.976562 166.273438 134.398438 167.699219 134.925781 169.125 C 135.449219 170.550781 135.375 172.648438 134.925781 173.925781 C 134.550781 174.976562 133.949219 175.875 133.050781 176.550781 C 131.925781 177.375 130.574219 177.898438 128.550781 178.199219 C 124.726562 178.800781 117.976562 177.824219 111.226562 177.148438 C 101.699219 176.175781 80.398438 177.375 76.726562 172.351562 C 74.398438 169.199219 78.976562 158.925781 78.976562 158.925781 " clip-rule="nonzero"/></clipPath><mask id="a127bdbade"><g filter="url(#35066aec80)"><rect x="-37.5" width="450" fill="#000000" y="-37.499999" height="449.999989" fill-opacity="0.5"/></g></mask><clipPath id="142805d042"><path d="M 0 0 L 170.480469 0 L 170.480469 43.855469 L 0 43.855469 Z M 0 0 " clip-rule="nonzero"/></clipPath><clipPath id="6f80385d2f"><path d="M 2.976562 22.925781 C 45.199219 28.398438 51.199219 28.101562 54.199219 28.925781 C 55.625 29.300781 56.300781 29.601562 57.125 30.425781 C 58.101562 31.398438 59.148438 33.199219 59.300781 34.699219 C 59.449219 36.199219 59 38.148438 58.175781 39.351562 C 57.351562 40.550781 55.25 41.675781 54.199219 42.050781 C 53.601562 42.273438 53.449219 42.351562 52.550781 42.199219 C 48.648438 41.675781 28.476562 33.5 22.023438 30.425781 C 18.875 28.925781 17.523438 27.5 15.199219 26.523438 C 12.949219 25.550781 9.875 25.398438 8.226562 24.425781 C 7.175781 23.824219 6.425781 23.074219 5.898438 22.175781 C 5.300781 21.273438 4.925781 20.148438 4.851562 19.101562 C 4.773438 18.050781 5 16.925781 5.375 15.949219 C 5.75 14.976562 6.5 14 7.324219 13.324219 C 8.148438 12.648438 9.125 12.125 10.25 11.976562 C 11.601562 11.75 14.976562 12.5 14.976562 12.726562 C 14.976562 12.949219 8.074219 13.25 8.074219 13.175781 C 8.074219 13.101562 12.351562 12.125 15.425781 12.199219 C 20.675781 12.351562 27.800781 14.523438 36.574219 16.476562 C 51.125 19.699219 86.75 26.675781 94.398438 30.574219 C 96.574219 31.699219 97.324219 32.375 98.074219 33.726562 C 98.824219 35 99.050781 37.023438 98.75 38.449219 C 98.449219 39.875 97.101562 41.523438 96.050781 42.425781 C 95.148438 43.101562 93.875 43.476562 93.050781 43.625 C 92.449219 43.773438 92.375 43.851562 91.476562 43.699219 C 86.375 42.949219 47.601562 32 40.773438 25.476562 C 38 22.851562 37.101562 19.699219 37.476562 17.375 C 37.773438 15.273438 40.023438 12.949219 42.050781 11.976562 C 44.375 10.851562 47.976562 11.601562 51.050781 11.675781 C 54.273438 11.75 56.375 11.824219 61.023438 12.574219 C 72.5 14.375 113.449219 22.625 120.125 25.851562 C 121.699219 26.601562 122.074219 26.898438 122.675781 27.875 C 123.425781 29 124.023438 31.101562 124.023438 32.449219 C 124.023438 33.574219 123.726562 34.625 123.050781 35.523438 C 122.226562 36.648438 120.5 38 119.226562 38.449219 C 118.175781 38.824219 117.574219 38.824219 116 38.601562 C 111.125 37.851562 96.425781 30.875 86.675781 27.574219 C 77.226562 24.351562 65.824219 21.648438 58.550781 18.949219 C 53.75 17.226562 49.175781 15.5 46.851562 13.925781 C 45.648438 13.175781 45.050781 12.574219 44.523438 11.675781 C 44 10.773438 43.625 9.648438 43.550781 8.601562 C 43.476562 7.550781 43.625 6.351562 44.074219 5.375 C 44.523438 4.398438 45.199219 3.5 46.023438 2.824219 C 46.851562 2.148438 47.601562 1.773438 48.949219 1.476562 C 51.273438 0.949219 55.851562 1.101562 59.300781 1.175781 C 62.75 1.25 64.925781 1.324219 69.5 2.074219 C 79.175781 3.648438 101 10.101562 114.351562 13.023438 C 124.925781 15.351562 138.5 16.773438 143 18.5 C 144.5 19.101562 145.023438 19.398438 145.773438 20.148438 C 146.523438 20.898438 147.199219 21.949219 147.5 22.925781 C 147.800781 23.898438 147.949219 25.101562 147.726562 26.148438 C 147.5 27.199219 147.125 28.25 146.375 29.074219 C 145.476562 30.125 144.050781 31.175781 142.324219 31.550781 C 139.699219 32.148438 136.25 31.175781 131.824219 30.425781 C 123.800781 29.074219 107.148438 25.101562 98.226562 22.773438 C 92.300781 21.199219 86.226562 19.851562 83.449219 18.351562 C 82.175781 17.675781 81.648438 17.226562 81.050781 16.25 C 80.375 15.050781 79.851562 12.949219 79.925781 11.601562 C 80 10.476562 80.375 9.425781 81.050781 8.523438 C 81.875 7.476562 83.148438 6.425781 84.949219 5.824219 C 87.949219 4.773438 93.949219 4.925781 98.074219 4.925781 C 101.75 4.925781 103.699219 5 108.425781 5.675781 C 119 7.175781 149.148438 13.398438 159.050781 16.175781 C 163.25 17.375 166.101562 18.050781 167.898438 19.398438 C 168.949219 20.148438 169.476562 21.050781 169.851562 22.023438 C 170.226562 23 170.449219 24.050781 170.300781 25.175781 C 170.074219 26.523438 169.101562 28.550781 168.125 29.523438 C 167.375 30.351562 166.324219 30.726562 165.351562 31.023438 C 164.375 31.324219 163.625 31.398438 162.125 31.101562 C 158.074219 30.351562 147.273438 24.425781 140.824219 22.023438 C 135.574219 20.074219 130.625 19.101562 126.425781 17.523438 C 122.976562 16.25 118.476562 13.175781 117.199219 13.550781 C 116.75 13.699219 116.601562 14.601562 116.523438 14.523438 C 116.226562 14.375 116.75 3.199219 119.824219 1.476562 C 123.800781 -0.773438 134.226562 5.375 141.648438 8.074219 C 149.75 11 162.273438 15.5 166.550781 18.5 C 168.351562 19.773438 169.25 20.75 169.851562 22.023438 C 170.300781 23 170.449219 24.050781 170.300781 25.175781 C 170.074219 26.523438 169.101562 28.550781 168.125 29.523438 C 167.375 30.351562 166.324219 30.726562 165.351562 31.023438 C 164.375 31.324219 163.476562 31.25 162.125 31.101562 C 159.800781 30.800781 157.25 29.523438 152.976562 28.476562 C 142.925781 26.074219 114.949219 19.476562 102.425781 18.425781 C 95.148438 17.824219 88.699219 20 85.023438 18.949219 C 83.074219 18.425781 81.875 17.449219 81.050781 16.25 C 80.226562 15.050781 79.773438 13.101562 79.925781 11.601562 C 80.074219 10.101562 80.976562 8.300781 82.101562 7.324219 C 83.226562 6.351562 84.5 5.75 86.601562 5.601562 C 91.550781 5.300781 102.574219 10.023438 111.5 12.125 C 121.699219 14.523438 140 16.773438 144.5 19.175781 C 145.925781 19.925781 146.300781 20.449219 146.824219 21.425781 C 147.5 22.625 147.949219 24.648438 147.726562 26.148438 C 147.5 27.648438 146.300781 29.375 145.25 30.273438 C 144.425781 31.023438 143.675781 31.324219 142.324219 31.550781 C 139.773438 31.925781 135.425781 30.875 130.925781 30.125 C 124.324219 29.074219 115.550781 27.273438 106.773438 25.25 C 95.976562 22.773438 81.726562 17.75 71.074219 16.023438 C 62.75 14.675781 52.625 16.175781 48.351562 14.601562 C 46.398438 13.851562 45.273438 12.949219 44.523438 11.675781 C 43.773438 10.398438 43.398438 8.449219 43.625 6.949219 C 43.851562 5.449219 44.898438 3.726562 46.023438 2.824219 C 47.226562 1.851562 48.648438 1.25 50.601562 1.324219 C 54.273438 1.398438 60.125 5.226562 66.273438 7.324219 C 74.75 10.25 87.5 13.476562 96.949219 16.773438 C 105.273438 19.699219 116.375 23.675781 120.125 25.851562 C 121.476562 26.601562 122 27.050781 122.675781 27.875 C 123.273438 28.699219 123.800781 29.675781 123.949219 30.800781 C 124.101562 32.148438 123.726562 34.324219 123.050781 35.523438 C 122.523438 36.5 121.699219 37.25 120.726562 37.773438 C 119.523438 38.375 118.398438 38.675781 116 38.601562 C 108.050781 38.375 74.898438 28.773438 64.625 26.898438 C 60.273438 26.074219 58.25 26.226562 55.324219 25.550781 C 52.625 24.949219 48.875 24.875 47.675781 23.074219 C 46.476562 21.199219 46.398438 15.800781 48.425781 14.449219 C 52.625 11.675781 75.050781 22.851562 83.675781 26.148438 C 88.851562 28.101562 93.5 29.675781 95.824219 31.324219 C 97.023438 32.148438 97.550781 32.675781 98.074219 33.726562 C 98.675781 35 99.050781 37.023438 98.75 38.449219 C 98.449219 39.875 97.101562 41.523438 96.050781 42.425781 C 95.148438 43.101562 94.101562 43.476562 93.050781 43.625 C 91.925781 43.851562 91.023438 43.699219 89.449219 43.476562 C 86.226562 42.949219 81.273438 40.851562 74.976562 39.273438 C 63.648438 36.351562 37.398438 31.699219 26.898438 28.476562 C 21.648438 26.824219 18.726562 24.351562 15.273438 23.824219 C 12.648438 23.449219 9.949219 25.175781 8.226562 24.425781 C 6.800781 23.824219 5.675781 22.175781 5.226562 20.75 C 4.773438 19.324219 4.925781 17.226562 5.375 15.949219 C 5.75 14.898438 6.425781 14 7.324219 13.324219 C 8.449219 12.5 9.648438 11.75 11.824219 11.824219 C 17.976562 11.976562 40.023438 21.648438 46.699219 24.949219 C 49.625 26.375 50.898438 27.949219 52.625 28.699219 C 53.824219 29.226562 54.800781 28.925781 55.773438 29.523438 C 56.976562 30.273438 58.398438 31.699219 58.925781 33.125 C 59.449219 34.550781 59.375 36.648438 58.925781 37.925781 C 58.550781 38.976562 57.949219 39.875 57.050781 40.550781 C 55.925781 41.375 54.574219 41.898438 52.550781 42.199219 C 48.726562 42.800781 41.976562 41.824219 35.226562 41.148438 C 25.699219 40.175781 4.398438 41.375 0.726562 36.351562 C -1.601562 33.199219 2.976562 22.925781 2.976562 22.925781 " clip-rule="nonzero"/></clipPath><clipPath id="f98e0a6005"><rect x="0" width="171" y="0" height="44"/></clipPath></defs><rect x="-37.5" width="450" fill="#ffffff" y="-37.499999" height="449.999989" fill-opacity="1"/><rect x="-37.5" width="450" fill="#ffffff" y="-37.499999" height="449.999989" fill-opacity="1"/><g clip-path="url(#dad148df75)"><path fill="#000000" d="M 145.554688 325.917969 C 125.011719 325.917969 107.230469 317.988281 95.707031 303.480469 C 87.523438 293.203125 82.414062 280.941406 78.867188 271.394531 C 68.542969 243.6875 62.753906 214.679688 61.710938 185.148438 C 61.609375 181.964844 61.816406 178.417969 64.320312 176.488281 C 66.613281 174.714844 69.742188 175.027344 72.453125 175.496094 L 104.15625 180.871094 C 106.5 181.289062 109.367188 181.757812 111.453125 183.636719 C 114.480469 186.402344 114.480469 190.886719 114.269531 195.21875 C 113.28125 214.628906 114.582031 234.195312 118.179688 253.289062 C 120.058594 263.359375 123.132812 276.351562 129.914062 287.671875 C 138.566406 302.125 150.402344 310.109375 166.203125 312.089844 C 172.667969 312.875 179.445312 312.664062 186.640625 311.414062 C 189.667969 309.167969 192.378906 306.613281 194.777344 303.847656 C 205.882812 291.167969 210.574219 273.585938 214.382812 259.445312 C 219.804688 239.203125 230.542969 179.515625 230.910156 169.863281 C 231.273438 160.78125 230.910156 154.886719 222.777344 149.097656 C 218.8125 146.277344 214.222656 144.714844 209.480469 143.773438 C 208.957031 144.085938 208.488281 144.347656 207.96875 144.609375 C 205.414062 145.964844 202.753906 147.21875 200.09375 148.417969 C 202.441406 148.78125 204.839844 149.148438 207.183594 149.617188 C 212.140625 150.558594 214.953125 152.488281 215.421875 155.410156 C 216.152344 159.84375 211.199219 162.558594 206.351562 163.703125 C 166.359375 172.835938 125.84375 175.445312 82.570312 171.582031 C 80.273438 171.375 77.40625 171.113281 74.902344 169.914062 C 72.140625 168.503906 70.316406 165.949219 70.261719 163.339844 C 70.261719 160.941406 71.410156 157.808594 74.070312 156.609375 C 96.960938 146.332031 137.265625 135.269531 199.519531 140.90625 C 202.648438 141.164062 205.933594 141.53125 209.21875 142.15625 C 211.878906 140.539062 214.382812 138.453125 214.796875 135.53125 C 215.371094 131.304688 211.097656 127.652344 206.613281 126.609375 C 204.472656 126.085938 202.179688 125.929688 199.988281 125.773438 C 197.433594 125.617188 194.828125 125.410156 192.324219 124.679688 C 187.214844 123.21875 182.574219 118.46875 183.929688 113.355469 C 185.183594 108.660156 190.5 106.730469 195.035156 105.632812 C 216.101562 100.363281 237.425781 95.09375 258.441406 89.980469 C 262.351562 89.042969 266.835938 87.945312 269.964844 85.078125 C 272.832031 82.46875 274.289062 77.5625 271.839844 74.484375 C 270.953125 73.390625 269.648438 72.554688 268.292969 71.71875 C 266.367188 70.519531 264.332031 69.269531 263.550781 66.972656 C 261.933594 62.328125 266.730469 58.3125 272.101562 56.378906 C 285.1875 51.683594 298.847656 49.074219 312.71875 48.554688 C 313.136719 48.554688 313.5 48.867188 313.554688 49.285156 C 313.554688 49.703125 313.238281 50.066406 312.824219 50.121094 C 299.109375 50.589844 285.605469 53.199219 272.675781 57.839844 C 269.390625 58.988281 263.601562 62.328125 265.0625 66.449219 C 265.6875 68.222656 267.355469 69.269531 269.128906 70.363281 C 270.535156 71.25 271.996094 72.136719 273.039062 73.492188 C 276.117188 77.40625 274.394531 83.144531 270.953125 86.226562 C 267.511719 89.355469 262.871094 90.503906 258.753906 91.496094 C 237.738281 96.609375 216.414062 101.878906 195.347656 107.148438 C 191.230469 108.191406 186.433594 109.859375 185.390625 113.773438 C 184.296875 117.84375 188.308594 121.964844 192.742188 123.21875 C 195.089844 123.894531 197.644531 124.050781 200.09375 124.261719 C 202.386719 124.417969 204.734375 124.574219 206.976562 125.148438 C 212.140625 126.398438 217.039062 130.730469 216.363281 135.84375 C 215.945312 138.816406 213.859375 141.0625 211.410156 142.730469 C 215.738281 143.722656 220.011719 145.339844 223.714844 148 C 232.421875 154.210938 232.839844 160.78125 232.472656 170.070312 C 232.109375 179.828125 221.316406 239.671875 215.894531 260.019531 C 212.085938 274.316406 207.34375 292.109375 195.976562 305.046875 C 194.148438 307.132812 192.117188 309.117188 189.980469 310.890625 C 195.507812 309.691406 201.242188 307.917969 207.289062 305.570312 C 234.664062 294.769531 258.699219 275.308594 274.917969 250.734375 C 279.246094 244.160156 285.136719 234.089844 285.96875 223.027344 C 286.804688 212.175781 282.269531 202.054688 274.394531 197.304688 C 268.292969 193.601562 259.953125 193.132812 252.546875 196 C 244.207031 199.289062 238.625 205.808594 235.445312 210.714844 C 232.890625 214.628906 231.484375 218.125 231.117188 221.460938 C 230.648438 225.585938 231.847656 229.496094 234.351562 231.949219 C 238.46875 236.070312 245.5625 235.707031 250.722656 233.515625 C 256.199219 231.21875 260.109375 227.253906 261.515625 222.714844 C 263.132812 217.496094 260.839844 211.652344 256.40625 209.671875 C 254.113281 208.628906 251.140625 208.992188 248.792969 210.609375 C 246.761719 211.96875 245.613281 213.949219 245.71875 216.035156 C 245.71875 216.453125 245.40625 216.820312 244.988281 216.871094 C 244.570312 216.871094 244.207031 216.558594 244.152344 216.140625 C 244.050781 213.480469 245.457031 211.027344 247.90625 209.359375 C 250.671875 207.480469 254.269531 207.0625 257.03125 208.316406 C 262.140625 210.609375 264.800781 217.289062 262.976562 223.289062 C 261.414062 228.296875 257.1875 232.574219 251.296875 235.082031 C 246.082031 237.324219 238.15625 238.105469 233.203125 233.203125 C 230.386719 230.382812 229.03125 226.003906 229.554688 221.410156 C 229.972656 217.808594 231.484375 214.105469 234.140625 209.984375 C 237.425781 204.921875 243.214844 198.140625 251.976562 194.695312 C 259.898438 191.566406 268.609375 192.089844 275.175781 196.105469 C 283.519531 201.167969 288.367188 211.863281 287.484375 223.289062 C 286.597656 234.714844 280.601562 244.992188 276.167969 251.777344 C 259.796875 276.613281 235.5 296.335938 207.8125 307.238281 C 200.5625 310.054688 193.785156 312.089844 187.269531 313.238281 C 178.507812 319.761719 167.664062 324.089844 156.140625 325.550781 C 152.542969 325.65625 148.996094 325.917969 145.554688 325.917969 Z M 68.855469 176.644531 C 67.5 176.644531 66.300781 176.90625 65.308594 177.6875 C 63.328125 179.199219 63.171875 182.277344 63.277344 185.097656 C 64.320312 214.472656 70.054688 243.324219 80.273438 270.871094 C 83.769531 280.265625 88.824219 292.367188 96.855469 302.492188 C 109.996094 319.082031 131.527344 326.804688 155.929688 323.675781 C 166.097656 322.371094 175.691406 318.820312 183.722656 313.449219 C 177.570312 314.28125 171.675781 314.335938 165.992188 313.65625 C 149.726562 311.671875 137.472656 303.429688 128.558594 288.507812 C 121.675781 276.925781 118.546875 263.777344 116.667969 253.601562 C 113.019531 234.351562 111.714844 214.730469 112.707031 195.167969 C 112.914062 191.199219 112.914062 187.132812 110.359375 184.835938 C 108.640625 183.269531 105.980469 182.800781 103.894531 182.4375 L 72.191406 177.0625 C 71.097656 176.851562 69.949219 176.644531 68.855469 176.644531 Z M 166.933594 140.90625 C 123.132812 140.90625 93.207031 149.722656 74.695312 158.019531 C 72.765625 158.851562 71.828125 161.304688 71.828125 163.289062 C 71.828125 165.324219 73.339844 167.355469 75.582031 168.453125 C 77.773438 169.546875 80.378906 169.808594 82.671875 169.964844 C 125.792969 173.828125 166.152344 171.21875 205.984375 162.140625 C 207.445312 161.828125 214.539062 159.949219 213.859375 155.617188 C 213.496094 153.425781 211.148438 151.914062 206.871094 151.078125 C 203.691406 150.503906 200.511719 149.984375 197.332031 149.566406 C 173.242188 159.84375 145.761719 164.539062 120.265625 162.558594 C 117.347656 162.347656 115.574219 161.199219 115.261719 159.425781 C 114.949219 157.496094 116.511719 155.828125 119.589844 154.886719 C 145.398438 146.957031 171.417969 144.609375 197.070312 147.949219 C 200.460938 146.488281 203.746094 144.921875 206.976562 143.253906 C 204.371094 142.835938 201.816406 142.574219 199.3125 142.367188 C 187.839844 141.375 177.046875 140.90625 166.933594 140.90625 Z M 174.390625 148.105469 C 156.296875 148.105469 138.152344 150.871094 120.109375 156.453125 C 119.535156 156.609375 116.617188 157.601562 116.878906 159.269531 C 117.085938 160.679688 119.433594 160.992188 120.476562 161.097656 C 144.824219 162.972656 171 158.695312 194.253906 149.253906 C 187.632812 148.46875 181.011719 148.105469 174.390625 148.105469 Z M 174.390625 148.105469 " fill-opacity="1" fill-rule="nonzero"/></g><g clip-path="url(#54e13508dd)"><g clip-path="url(#e6e74557d7)"><g mask="url(#6eef247dec)"><g transform="matrix(1, 0, 0, 1, 57, 128)"><g clip-path="url(#125a8b1956)"><g clip-path="url(#e11b244334)"><g clip-path="url(#c28388498f)"><rect x="-139.5" width="540" fill="#b88888" height="539.999987" y="-210.499998" fill-opacity="1"/></g></g></g></g></g></g></g><g clip-path="url(#1e06fb8ed2)"><g clip-path="url(#389ff9b531)"><g mask="url(#e1a9dd8b3a)"><g transform="matrix(1, 0, 0, 1, 72, 138)"><g clip-path="url(#1ce95ecd77)"><g clip-path="url(#d5f3d2c3dc)"><g clip-path="url(#5bf2c0acfa)"><rect x="-154.5" width="540" fill="#c48484" height="539.999987" y="-220.499998" fill-opacity="1"/></g></g></g></g></g></g></g><g clip-path="url(#4a976d6177)"><g clip-path="url(#d374b6986a)"><g mask="url(#a127bdbade)"><g transform="matrix(1, 0, 0, 1, 76, 136)"><g clip-path="url(#f98e0a6005)"><g clip-path="url(#142805d042)"><g clip-path="url(#6f80385d2f)"><rect x="-158.5" width="540" fill="#4d3030" height="539.999987" y="-218.499998" fill-opacity="1"/></g></g></g></g></g></g></g><g fill="#000000" fill-opacity="1"><g transform="translate(121.387681, 233.43995)"><g><path d="M 10 -10.171875 C 9.613281 -10.171875 9.328125 -10.394531 9.140625 -10.84375 C 8.960938 -11.226562 8.804688 -11.46875 8.671875 -11.5625 C 8.535156 -11.625 8.21875 -11.65625 7.71875 -11.65625 C 6.84375 -11.65625 5.867188 -10.984375 4.796875 -9.640625 C 3.347656 -7.835938 2.625 -6.128906 2.625 -4.515625 C 2.625 -3.742188 2.875 -3.078125 3.375 -2.515625 C 3.894531 -1.929688 4.515625 -1.640625 5.234375 -1.640625 C 5.859375 -1.640625 6.484375 -1.800781 7.109375 -2.125 C 7.460938 -2.300781 8.003906 -2.65625 8.734375 -3.1875 C 9.078125 -3.445312 9.335938 -3.578125 9.515625 -3.578125 C 9.765625 -3.578125 9.976562 -3.476562 10.15625 -3.28125 C 10.332031 -3.082031 10.421875 -2.863281 10.421875 -2.625 C 10.421875 -2.351562 10.304688 -2.113281 10.078125 -1.90625 C 8.484375 -0.488281 6.867188 0.21875 5.234375 0.21875 C 3.984375 0.21875 2.925781 -0.257812 2.0625 -1.21875 C 1.226562 -2.15625 0.8125 -3.253906 0.8125 -4.515625 C 0.8125 -6.566406 1.671875 -8.671875 3.390625 -10.828125 C 4.816406 -12.617188 6.257812 -13.515625 7.71875 -13.515625 C 8.019531 -13.515625 8.285156 -13.5 8.515625 -13.46875 C 8.753906 -13.445312 8.960938 -13.40625 9.140625 -13.34375 C 9.359375 -13.644531 9.632812 -13.796875 9.96875 -13.796875 C 10.382812 -13.796875 10.648438 -13.523438 10.765625 -12.984375 C 10.859375 -12.492188 10.90625 -11.890625 10.90625 -11.171875 C 10.90625 -10.921875 10.835938 -10.703125 10.703125 -10.515625 C 10.535156 -10.285156 10.300781 -10.171875 10 -10.171875 Z M 10 -10.171875 "/></g></g></g><g fill="#000000" fill-opacity="1"><g transform="translate(132.565531, 233.43995)"><g><path d="M 11.328125 0.265625 C 10.773438 0.265625 10.289062 -0.441406 9.875 -1.859375 C 9.71875 -2.410156 9.523438 -3.363281 9.296875 -4.71875 C 8.671875 -4.632812 7.863281 -4.484375 6.875 -4.265625 L 4.453125 -3.765625 C 4.148438 -2.972656 3.632812 -1.816406 2.90625 -0.296875 C 2.71875 0.0351562 2.457031 0.203125 2.125 0.203125 C 1.882812 0.203125 1.664062 0.117188 1.46875 -0.046875 C 1.28125 -0.222656 1.1875 -0.441406 1.1875 -0.703125 C 1.1875 -0.992188 1.644531 -2.097656 2.5625 -4.015625 C 2.457031 -4.171875 2.40625 -4.351562 2.40625 -4.5625 C 2.40625 -5.050781 2.703125 -5.363281 3.296875 -5.5 C 3.984375 -6.789062 4.851562 -8.28125 5.90625 -9.96875 C 7.332031 -12.25 8.222656 -13.390625 8.578125 -13.390625 C 9.054688 -13.390625 9.378906 -13.0625 9.546875 -12.40625 L 10.125 -9.359375 L 11.46875 -3.046875 L 11.984375 -1.625 C 12.160156 -1.132812 12.25 -0.804688 12.25 -0.640625 C 12.25 -0.378906 12.15625 -0.164062 11.96875 0 C 11.78125 0.175781 11.566406 0.265625 11.328125 0.265625 Z M 8.125 -10.09375 L 5.53125 -5.90625 C 6.269531 -6.09375 7.378906 -6.320312 8.859375 -6.59375 Z M 8.125 -10.09375 "/></g></g></g><g fill="#000000" fill-opacity="1"><g transform="translate(146.134754, 233.43995)"><g><path d="M 10.03125 -11.90625 C 9.914062 -11.90625 9.800781 -11.929688 9.6875 -11.984375 C 8.9375 -12.265625 7.941406 -12.40625 6.703125 -12.40625 C 6.304688 -12.40625 5.835938 -12.375 5.296875 -12.3125 C 4.765625 -12.257812 4.164062 -12.171875 3.5 -12.046875 L 3.484375 -8.125 C 4.648438 -8.4375 5.53125 -8.59375 6.125 -8.59375 C 7.050781 -8.59375 8.015625 -8.535156 9.015625 -8.421875 C 9.578125 -8.367188 9.859375 -8.0625 9.859375 -7.5 C 9.859375 -7.226562 9.769531 -7.003906 9.59375 -6.828125 C 9.414062 -6.648438 9.203125 -6.5625 8.953125 -6.5625 C 8.628906 -6.5625 8.15625 -6.585938 7.53125 -6.640625 C 6.90625 -6.691406 6.4375 -6.71875 6.125 -6.71875 C 5.707031 -6.71875 4.816406 -6.546875 3.453125 -6.203125 L 3.375 0.03125 C 3.375 0.289062 3.285156 0.507812 3.109375 0.6875 C 2.941406 0.863281 2.726562 0.953125 2.46875 0.953125 C 2.207031 0.953125 1.988281 0.863281 1.8125 0.6875 C 1.644531 0.507812 1.5625 0.289062 1.5625 0.03125 C 1.5625 -1.15625 1.582031 -2.941406 1.625 -5.328125 C 1.675781 -7.710938 1.703125 -9.5 1.703125 -10.6875 C 1.703125 -10.945312 1.695312 -11.34375 1.6875 -11.875 C 1.675781 -12.414062 1.671875 -12.820312 1.671875 -13.09375 C 1.671875 -13.351562 1.753906 -13.570312 1.921875 -13.75 C 2.085938 -13.9375 2.304688 -14.03125 2.578125 -14.03125 C 2.773438 -14.03125 2.953125 -13.976562 3.109375 -13.875 C 3.859375 -14 4.53125 -14.09375 5.125 -14.15625 C 5.726562 -14.21875 6.253906 -14.25 6.703125 -14.25 C 7.398438 -14.25 8.195312 -14.148438 9.09375 -13.953125 C 10.300781 -13.679688 10.90625 -13.320312 10.90625 -12.875 C 10.90625 -12.632812 10.828125 -12.421875 10.671875 -12.234375 C 10.503906 -12.015625 10.289062 -11.90625 10.03125 -11.90625 Z M 10.03125 -11.90625 "/></g></g></g><g fill="#000000" fill-opacity="1"><g transform="translate(157.394129, 233.43995)"><g><path d="M 10.109375 -12.203125 C 10.023438 -12.203125 9.929688 -12.21875 9.828125 -12.25 C 8.804688 -12.539062 7.820312 -12.6875 6.875 -12.6875 C 6.375 -12.6875 5.832031 -12.640625 5.25 -12.546875 C 4.664062 -12.453125 4.035156 -12.3125 3.359375 -12.125 C 3.410156 -11.726562 3.4375 -11.414062 3.4375 -11.1875 C 3.4375 -10.34375 3.382812 -9.1875 3.28125 -7.71875 L 7.25 -8.109375 C 8.414062 -8.222656 9.132812 -8.28125 9.40625 -8.28125 C 9.664062 -8.28125 9.882812 -8.195312 10.0625 -8.03125 C 10.25 -7.863281 10.34375 -7.632812 10.34375 -7.34375 C 10.34375 -6.800781 10.066406 -6.492188 9.515625 -6.421875 L 7.34375 -6.234375 L 3.15625 -5.859375 C 3.132812 -5.429688 3.113281 -5.023438 3.09375 -4.640625 C 3.082031 -4.253906 3.078125 -3.894531 3.078125 -3.5625 C 3.078125 -2.226562 3.175781 -1.441406 3.375 -1.203125 C 3.519531 -1.035156 3.992188 -0.953125 4.796875 -0.953125 C 5.171875 -0.953125 5.734375 -0.960938 6.484375 -0.984375 C 7.234375 -1.003906 7.800781 -1.015625 8.1875 -1.015625 C 8.300781 -1.015625 8.476562 -1.035156 8.71875 -1.078125 C 8.957031 -1.117188 9.132812 -1.140625 9.25 -1.140625 C 9.882812 -1.140625 10.203125 -0.820312 10.203125 -0.1875 C 10.203125 0.320312 9.945312 0.625 9.4375 0.71875 C 8.863281 0.832031 7.632812 0.890625 5.75 0.890625 C 3.875 0.890625 2.671875 0.644531 2.140625 0.15625 C 1.554688 -0.382812 1.265625 -1.625 1.265625 -3.5625 C 1.265625 -3.945312 1.273438 -4.367188 1.296875 -4.828125 C 1.316406 -5.285156 1.34375 -5.78125 1.375 -6.3125 C 1.300781 -6.457031 1.265625 -6.609375 1.265625 -6.765625 C 1.265625 -6.960938 1.320312 -7.144531 1.4375 -7.3125 C 1.5625 -9.0625 1.625 -10.351562 1.625 -11.1875 C 1.625 -11.40625 1.59375 -11.726562 1.53125 -12.15625 C 1.46875 -12.59375 1.4375 -12.925781 1.4375 -13.15625 C 1.4375 -13.875 1.738281 -14.234375 2.34375 -14.234375 C 2.601562 -14.234375 2.820312 -14.144531 3 -13.96875 C 3.726562 -14.15625 4.410156 -14.296875 5.046875 -14.390625 C 5.691406 -14.492188 6.300781 -14.546875 6.875 -14.546875 C 8.34375 -14.546875 9.515625 -14.367188 10.390625 -14.015625 C 10.796875 -13.859375 11 -13.570312 11 -13.15625 C 11 -12.90625 10.921875 -12.691406 10.765625 -12.515625 C 10.585938 -12.304688 10.367188 -12.203125 10.109375 -12.203125 Z M 10.109375 -12.203125 "/></g></g></g><g fill="#000000" fill-opacity="1"><g transform="translate(168.9796, 233.43995)"><g><path d="M 6.15625 -4.3125 C 5.332031 -4.21875 3.867188 -4.171875 1.765625 -4.171875 C 1.253906 -4.171875 1 -4.410156 1 -4.890625 C 1 -5.359375 1.253906 -5.59375 1.765625 -5.59375 C 2.242188 -5.59375 2.957031 -5.613281 3.90625 -5.65625 C 4.863281 -5.695312 5.582031 -5.71875 6.0625 -5.71875 C 6.601562 -5.71875 6.875 -5.484375 6.875 -5.015625 C 6.875 -4.597656 6.632812 -4.363281 6.15625 -4.3125 Z M 6.15625 -4.3125 "/></g></g></g><g fill="#000000" fill-opacity="1"><g transform="translate(176.706266, 233.43995)"><g><path d="M 8.671875 -11.296875 C 8.285156 -11.296875 7.800781 -11.332031 7.21875 -11.40625 L 5.75 -11.609375 C 5.613281 -9.847656 5.546875 -8.164062 5.546875 -6.5625 C 5.546875 -6.132812 5.554688 -5.609375 5.578125 -4.984375 C 5.609375 -4.367188 5.625 -3.847656 5.625 -3.421875 C 5.625 -2.859375 5.601562 -2.34375 5.5625 -1.875 L 8.40625 -1.90625 C 8.664062 -1.90625 8.878906 -1.816406 9.046875 -1.640625 C 9.222656 -1.460938 9.3125 -1.242188 9.3125 -0.984375 C 9.3125 -0.722656 9.222656 -0.5 9.046875 -0.3125 C 8.878906 -0.132812 8.664062 -0.046875 8.40625 -0.046875 C 8.070312 -0.046875 7.566406 -0.0390625 6.890625 -0.03125 C 6.210938 -0.0195312 5.703125 -0.015625 5.359375 -0.015625 C 4.960938 -0.015625 4.367188 0.0390625 3.578125 0.15625 C 2.785156 0.269531 2.1875 0.328125 1.78125 0.328125 C 1.519531 0.328125 1.300781 0.238281 1.125 0.0625 C 0.957031 -0.113281 0.875 -0.332031 0.875 -0.59375 C 0.875 -0.851562 0.957031 -1.070312 1.125 -1.25 C 1.300781 -1.4375 1.519531 -1.53125 1.78125 -1.53125 C 2.164062 -1.53125 2.8125 -1.59375 3.71875 -1.71875 C 3.78125 -2.207031 3.8125 -2.769531 3.8125 -3.40625 C 3.8125 -3.820312 3.789062 -4.328125 3.75 -4.921875 C 3.71875 -5.523438 3.703125 -6.03125 3.703125 -6.4375 C 3.703125 -7.832031 3.785156 -9.578125 3.953125 -11.671875 L 2.78125 -11.640625 L 1.59375 -11.609375 C 1.332031 -11.609375 1.113281 -11.695312 0.9375 -11.875 C 0.769531 -12.050781 0.6875 -12.273438 0.6875 -12.546875 C 0.6875 -13.109375 0.96875 -13.414062 1.53125 -13.46875 C 2.019531 -13.519531 2.9375 -13.546875 4.28125 -13.546875 C 5.476562 -13.546875 6.984375 -13.414062 8.796875 -13.15625 C 9.335938 -13.070312 9.609375 -12.75 9.609375 -12.1875 C 9.609375 -11.894531 9.503906 -11.664062 9.296875 -11.5 C 9.117188 -11.363281 8.910156 -11.296875 8.671875 -11.296875 Z M 8.671875 -11.296875 "/></g></g></g><g fill="#000000" fill-opacity="1"><g transform="translate(186.842421, 233.43995)"><g><path d="M 13.96875 -2.015625 C 13.96875 -1.722656 13.921875 -1.238281 13.828125 -0.5625 C 13.722656 0.0507812 13.398438 0.359375 12.859375 0.359375 C 12.523438 0.359375 12.128906 0.140625 11.671875 -0.296875 C 9.203125 -2.617188 6.378906 -5.976562 3.203125 -10.375 L 3.15625 -8.3125 L 3.125 -6.25 C 3.125 -5.75 3.132812 -4.992188 3.15625 -3.984375 C 3.175781 -2.984375 3.1875 -2.226562 3.1875 -1.71875 C 3.1875 -0.09375 2.875 0.71875 2.25 0.71875 C 1.914062 0.71875 1.648438 0.613281 1.453125 0.40625 C 1.285156 0.21875 1.203125 -0.00390625 1.203125 -0.265625 C 1.203125 -0.523438 1.21875 -0.910156 1.25 -1.421875 C 1.289062 -1.929688 1.3125 -2.316406 1.3125 -2.578125 C 1.3125 -2.953125 1.320312 -3.507812 1.34375 -4.25 C 1.375 -5 1.390625 -5.5625 1.390625 -5.9375 C 1.390625 -6.332031 1.378906 -6.929688 1.359375 -7.734375 C 1.335938 -8.546875 1.328125 -9.148438 1.328125 -9.546875 C 1.328125 -9.929688 1.289062 -10.5 1.21875 -11.25 C 1.144531 -12 1.109375 -12.566406 1.109375 -12.953125 C 1.109375 -13.234375 1.226562 -13.488281 1.46875 -13.71875 C 1.707031 -13.945312 1.976562 -14.0625 2.28125 -14.0625 C 2.601562 -14.0625 3 -13.707031 3.46875 -13 C 4.976562 -10.75 6.332031 -8.878906 7.53125 -7.390625 C 8.96875 -5.617188 10.539062 -3.925781 12.25 -2.3125 C 12.257812 -2.570312 12.257812 -2.957031 12.25 -3.46875 L 12.21875 -4.609375 C 12.21875 -7.253906 12.113281 -9.363281 11.90625 -10.9375 C 11.882812 -11.09375 11.804688 -11.410156 11.671875 -11.890625 C 11.546875 -12.304688 11.484375 -12.628906 11.484375 -12.859375 C 11.484375 -13.554688 11.800781 -13.90625 12.4375 -13.90625 C 13.488281 -13.90625 14.015625 -11.941406 14.015625 -8.015625 C 14.015625 -7.347656 14.003906 -6.347656 13.984375 -5.015625 C 13.972656 -3.679688 13.96875 -2.679688 13.96875 -2.015625 Z M 13.96875 -2.015625 "/></g></g></g></svg>