<svg xmlns="http://www.w3.org/2000/svg" xmlns:xlink="http://www.w3.org/1999/xlink" width="200" zoomAndPan="magnify" viewBox="0 0 375 374.999991" height="200" preserveAspectRatio="xMidYMid meet" version="1.0"><defs><g/><clipPath id="23b24c1e70"><path d="M 25.390625 46.210938 L 249 46.210938 L 249 208.210938 L 25.390625 208.210938 Z M 25.390625 46.210938 " clip-rule="nonzero"/></clipPath><clipPath id="8f770a567a"><path d="M 126 46.210938 L 349.390625 46.210938 L 349.390625 208.210938 L 126 208.210938 Z M 126 46.210938 " clip-rule="nonzero"/></clipPath></defs><g clip-path="url(#23b24c1e70)"><path fill="#000000" d="M 167.140625 86.710938 L 106.390625 86.710938 C 84.023438 86.710938 65.890625 104.84375 65.890625 127.210938 C 65.890625 149.578125 84.023438 167.710938 106.390625 167.710938 L 106.390625 208.210938 C 61.65625 208.210938 25.390625 171.945312 25.390625 127.210938 C 25.390625 82.476562 61.65625 46.210938 106.390625 46.210938 L 167.140625 46.210938 C 211.875 46.210938 248.140625 82.476562 248.140625 127.210938 L 248.140625 147.460938 L 207.640625 147.460938 L 207.640625 127.210938 C 207.640625 104.84375 189.507812 86.710938 167.140625 86.710938 Z M 167.140625 86.710938 " fill-opacity="1" fill-rule="evenodd"/></g><g clip-path="url(#8f770a567a)"><path fill="#000000" d="M 207.640625 167.710938 L 268.390625 167.710938 C 290.757812 167.710938 308.890625 149.578125 308.890625 127.210938 C 308.890625 104.84375 290.757812 86.710938 268.390625 86.710938 L 268.390625 46.210938 C 313.125 46.210938 349.390625 82.476562 349.390625 127.210938 C 349.390625 171.945312 313.125 208.210938 268.390625 208.210938 L 207.640625 208.210938 C 162.90625 208.210938 126.640625 171.945312 126.640625 127.210938 L 126.640625 106.960938 L 167.140625 106.960938 L 167.140625 127.210938 C 167.140625 149.578125 185.273438 167.710938 207.640625 167.710938 Z M 207.640625 167.710938 " fill-opacity="1" fill-rule="evenodd"/></g><g fill="#000000" fill-opacity="1"><g transform="translate(80.127729, 263.647964)"><g><path d="M 2.621094 -0.734375 L 2.621094 0 L 10.058594 0 L 10.058594 -0.734375 C 8.226562 -0.734375 6.707031 -1.046875 6.707031 -1.992188 L 6.707031 -35.207031 L 20.851562 -0.261719 L 21.007812 -0.261719 L 34.996094 -35.46875 L 34.996094 -1.992188 C 34.996094 -1.046875 33.476562 -0.734375 31.644531 -0.734375 L 31.644531 0 L 40.234375 0 L 40.234375 -0.734375 C 38.402344 -0.734375 36.882812 -1.046875 36.882812 -1.992188 L 36.882812 -35.046875 C 36.882812 -35.9375 38.402344 -36.304688 40.234375 -36.304688 L 40.234375 -37.039062 L 34.785156 -37.039062 L 21.53125 -3.5625 L 8.015625 -37.039062 L 2.621094 -37.039062 L 2.621094 -36.304688 C 4.453125 -36.304688 5.921875 -35.9375 5.972656 -35.046875 L 5.972656 -1.992188 C 5.972656 -1.046875 4.453125 -0.734375 2.621094 -0.734375 Z M 2.621094 -0.734375 "/></g></g></g><g fill="#000000" fill-opacity="1"><g transform="translate(122.981794, 263.647964)"><g><path d="M 18.230469 0.472656 C 25.042969 0.472656 29.964844 -5.082031 29.964844 -12.730469 L 29.964844 -35.046875 C 29.964844 -35.992188 31.695312 -36.253906 32.636719 -36.304688 L 33.265625 -36.304688 L 33.265625 -37.089844 L 25.878906 -37.089844 L 25.878906 -36.304688 L 26.507812 -36.304688 C 27.453125 -36.253906 29.179688 -35.992188 29.179688 -35.046875 L 29.179688 -12.730469 C 29.179688 -5.554688 24.621094 -0.261719 18.230469 -0.261719 C 15.664062 -0.261719 13.621094 -1.101562 11.472656 -3.144531 C 9.21875 -5.449219 7.859375 -8.90625 7.859375 -12.730469 L 7.859375 -35.101562 C 7.910156 -35.992188 9.585938 -36.253906 10.53125 -36.304688 L 11.210938 -36.304688 L 11.210938 -37.089844 L 2.621094 -37.089844 L 2.621094 -36.304688 L 3.300781 -36.304688 C 4.242188 -36.253906 5.867188 -35.992188 5.972656 -35.152344 L 5.972656 -12.730469 C 5.972656 -4.765625 11.105469 0.472656 18.230469 0.472656 Z M 18.230469 0.472656 "/></g></g><g transform="translate(158.868148, 263.647964)"><g><path d="M 18.230469 0.628906 C 20.222656 0.628906 22.109375 0.210938 23.941406 -0.679688 C 27.347656 -2.148438 30.910156 -4.871094 30.910156 -4.871094 L 30.910156 -12.886719 C 30.910156 -13.832031 32.636719 -14.09375 33.582031 -14.144531 L 34.210938 -14.144531 L 34.210938 -14.878906 L 25.671875 -14.878906 L 25.671875 -14.144531 L 26.300781 -14.144531 C 27.292969 -14.09375 29.023438 -13.832031 29.023438 -12.886719 L 29.023438 -9.0625 C 29.023438 -6.652344 27.921875 -4.402344 26.039062 -2.933594 C 23.730469 -1.152344 21.058594 -0.15625 18.230469 -0.15625 C 17.863281 -0.15625 17.496094 -0.15625 17.132812 -0.210938 C 10.164062 -1.203125 4.503906 -9.429688 4.503906 -18.386719 C 4.503906 -27.820312 10.6875 -36.621094 18.230469 -36.621094 C 22.894531 -36.621094 27.871094 -34.105469 30.070312 -29.179688 L 30.753906 -29.601562 L 29.914062 -33.058594 C 29.914062 -33.058594 27.347656 -34.734375 24.414062 -36.042969 L 24.570312 -35.9375 C 22.578125 -36.933594 20.378906 -37.40625 18.230469 -37.40625 C 9.640625 -37.40625 2.621094 -28.867188 2.621094 -18.386719 C 2.621094 -7.910156 9.640625 0.628906 18.230469 0.628906 Z M 18.230469 0.628906 "/></g></g><g transform="translate(195.6975, 263.647964)"><g><path d="M 2.621094 -0.734375 L 2.621094 0 L 10.058594 0 L 10.058594 -0.734375 C 8.226562 -0.734375 6.707031 -1.046875 6.707031 -1.992188 L 6.707031 -35.308594 L 29.074219 0 L 29.757812 0 L 29.757812 -35.046875 C 29.757812 -35.9375 31.277344 -36.304688 33.109375 -36.304688 L 33.109375 -37.039062 L 25.671875 -37.039062 L 25.671875 -36.304688 C 27.503906 -36.304688 29.023438 -35.9375 29.023438 -35.046875 L 29.023438 -3.71875 L 7.804688 -37.039062 L 2.621094 -37.039062 L 2.621094 -36.304688 C 4.453125 -36.304688 5.921875 -35.9375 5.921875 -35.046875 L 5.921875 -1.992188 C 5.921875 -1.046875 4.453125 -0.734375 2.621094 -0.734375 Z M 2.621094 -0.734375 "/></g></g><g transform="translate(231.426687, 263.647964)"><g><path d="M 2.621094 -0.734375 L 2.621094 0 L 23.207031 0 L 25.25 -3.300781 L 24.359375 -3.300781 C 24.203125 -2.984375 22.738281 -0.734375 21.21875 -0.734375 L 7.804688 -0.734375 L 7.804688 -20.167969 L 20.167969 -20.167969 C 20.695312 -20.167969 21.269531 -18.914062 21.269531 -18.914062 L 21.636719 -18.914062 L 21.636719 -22.210938 L 21.269531 -22.210938 C 21.269531 -22.210938 20.695312 -20.957031 20.167969 -20.957031 L 7.804688 -20.957031 L 7.804688 -36.253906 L 20.066406 -36.253906 C 21.164062 -36.253906 22.371094 -34.054688 22.476562 -33.84375 L 22.839844 -33.84375 L 22.839844 -37.039062 L 2.621094 -37.039062 L 2.621094 -36.253906 C 2.621094 -36.253906 5.921875 -36.253906 5.921875 -34.996094 L 5.921875 -1.992188 C 5.921875 -1.046875 4.191406 -0.785156 3.25 -0.734375 Z M 2.621094 -0.734375 "/></g></g></g><g fill="#000000" fill-opacity="1"><g transform="translate(259.297532, 263.647964)"><g><path d="M 13.515625 -0.785156 L 13.515625 0 L 22.109375 0 L 22.109375 -0.785156 C 20.273438 -0.785156 18.703125 -1.101562 18.703125 -2.042969 L 18.703125 -36.253906 L 30.125 -36.253906 C 31.277344 -36.253906 32.429688 -34.054688 32.535156 -33.84375 L 32.953125 -33.84375 L 32.953125 -37.039062 L 2.621094 -37.039062 L 2.621094 -33.84375 L 3.039062 -33.84375 C 3.144531 -34.054688 4.296875 -36.253906 5.449219 -36.253906 L 16.871094 -36.253906 L 16.871094 -2.042969 C 16.871094 -1.101562 15.351562 -0.785156 13.515625 -0.785156 Z M 13.515625 -0.785156 "/></g></g></g></svg>